<svg width="1346" height="811" viewBox="0 0 1346 811" fill="none" xmlns="http://www.w3.org/2000/svg">
<g style="mix-blend-mode:hard-light">
<g opacity="0.2">
<g opacity="0.2">
<path opacity="0.2" d="M150.205 710.003C75.249 710.003 14.2792 649.034 14.2792 574.078C14.2792 499.122 75.249 438.152 150.205 438.152C225.16 438.152 286.13 499.122 286.13 574.078C286.13 649.034 225.16 710.003 150.205 710.003ZM150.205 439.901C76.1231 439.901 16.0274 499.996 16.0274 574.078C16.0274 648.16 76.1231 708.255 150.205 708.255C224.286 708.255 284.382 648.16 284.382 574.078C284.382 500.215 224.286 439.901 150.205 439.901Z" fill="white" fill-opacity="0.3"/>
</g>
<g opacity="0.2">
<path opacity="0.2" d="M150.205 687.495C87.7052 687.495 36.7877 636.578 36.7877 574.078C36.7877 511.578 87.7052 460.661 150.205 460.661C212.704 460.661 263.622 511.578 263.622 574.078C263.622 636.578 212.704 687.495 150.205 687.495ZM150.205 462.409C88.5793 462.409 38.536 512.453 38.536 574.078C38.536 635.703 88.5793 685.747 150.205 685.747C211.83 685.747 261.873 635.703 261.873 574.078C261.873 512.671 211.83 462.409 150.205 462.409Z" fill="white" fill-opacity="0.3"/>
</g>
<g opacity="0.2">
<path opacity="0.2" d="M150.205 664.986C100.161 664.986 59.2963 624.34 59.2963 574.078C59.2963 524.035 99.9429 483.169 150.205 483.169C200.467 483.169 241.113 523.816 241.113 574.078C241.113 624.34 200.248 664.986 150.205 664.986ZM150.205 484.918C101.036 484.918 61.0446 524.909 61.0446 574.078C61.0446 623.247 101.036 663.238 150.205 663.238C199.374 663.238 239.365 623.247 239.365 574.078C239.365 524.909 199.374 484.918 150.205 484.918Z" fill="white" fill-opacity="0.3"/>
</g>
<g opacity="0.2">
<path opacity="0.2" d="M150.205 642.478C112.618 642.478 81.8049 611.884 81.8049 574.078C81.8049 536.491 112.399 505.678 150.205 505.678C187.792 505.678 218.605 536.272 218.605 574.078C218.605 611.884 188.01 642.478 150.205 642.478ZM150.205 507.426C113.492 507.426 83.5531 537.365 83.5531 574.078C83.5531 610.791 113.492 640.73 150.205 640.73C186.918 640.73 216.856 610.791 216.856 574.078C216.856 537.365 187.136 507.426 150.205 507.426Z" fill="white" fill-opacity="0.3"/>
</g>
<g opacity="0.2">
<path opacity="0.2" d="M150.205 619.969C124.855 619.969 104.313 599.427 104.313 574.078C104.313 548.728 124.855 528.187 150.205 528.187C175.554 528.187 196.096 548.728 196.096 574.078C196.096 599.427 175.554 619.969 150.205 619.969ZM150.205 529.935C125.948 529.935 106.062 549.821 106.062 574.078C106.062 598.335 125.948 618.221 150.205 618.221C174.461 618.221 194.348 598.335 194.348 574.078C194.348 549.821 174.68 529.935 150.205 529.935Z" fill="white" fill-opacity="0.3"/>
</g>
<g opacity="0.2">
<path opacity="0.2" d="M150.205 597.461C137.311 597.461 126.822 586.971 126.822 574.078C126.822 561.185 137.311 550.695 150.205 550.695C163.098 550.695 173.587 561.185 173.587 574.078C173.587 586.971 163.098 597.461 150.205 597.461ZM150.205 552.443C138.186 552.443 128.57 562.277 128.57 574.078C128.57 585.879 138.404 595.712 150.205 595.712C162.224 595.712 171.839 585.879 171.839 574.078C171.839 562.277 162.224 552.443 150.205 552.443Z" fill="white" fill-opacity="0.3"/>
</g>
</g>
<g opacity="0.2">
<g opacity="0.2">
<path opacity="0.2" d="M1098.19 495.626C961.606 495.626 850.374 384.394 850.374 247.813C850.374 111.232 961.606 0 1098.19 0C1234.77 0 1346 111.232 1346 247.813C1346 384.394 1234.77 495.626 1098.19 495.626ZM1098.19 1.74824C962.48 1.74824 851.904 112.106 851.904 248.031C851.904 383.738 962.262 494.315 1098.19 494.315C1233.89 494.315 1344.47 383.957 1344.47 248.031C1344.47 112.106 1233.89 1.74824 1098.19 1.74824Z" fill="white" fill-opacity="0.3"/>
</g>
<g opacity="0.2">
<path opacity="0.2" d="M1098.19 454.542C984.333 454.542 891.458 361.885 891.458 247.813C891.458 133.959 984.115 41.0836 1098.19 41.0836C1212.04 41.0836 1304.92 133.74 1304.92 247.813C1304.92 361.885 1212.26 454.542 1098.19 454.542ZM1098.19 42.8319C985.207 42.8319 893.206 134.833 893.206 247.813C893.206 360.793 985.207 452.794 1098.19 452.794C1211.17 452.794 1303.17 360.793 1303.17 247.813C1303.17 134.833 1211.17 42.8319 1098.19 42.8319Z" fill="white" fill-opacity="0.3"/>
</g>
<g opacity="0.2">
<path opacity="0.2" d="M1098.19 413.24C1006.84 413.24 932.76 338.94 932.76 247.813C932.76 156.467 1007.06 82.3856 1098.19 82.3856C1189.53 82.3856 1263.61 156.686 1263.61 247.813C1263.61 339.158 1189.53 413.24 1098.19 413.24ZM1098.19 83.9153C1007.93 83.9153 934.29 157.341 934.29 247.813C934.29 338.284 1007.72 411.71 1098.19 411.71C1188.44 411.71 1262.08 338.284 1262.08 247.813C1262.08 157.341 1188.66 83.9153 1098.19 83.9153Z" fill="white" fill-opacity="0.3"/>
</g>
<g opacity="0.2">
<path opacity="0.2" d="M1098.19 372.156C1029.57 372.156 973.844 316.431 973.844 247.813C973.844 179.195 1029.57 123.469 1098.19 123.469C1166.81 123.469 1222.53 179.195 1222.53 247.813C1222.53 316.431 1166.81 372.156 1098.19 372.156ZM1098.19 125.218C1030.44 125.218 975.592 180.287 975.592 247.813C975.592 315.339 1030.66 370.408 1098.19 370.408C1165.93 370.408 1220.78 315.339 1220.78 247.813C1220.78 180.287 1165.93 125.218 1098.19 125.218Z" fill="white" fill-opacity="0.3"/>
</g>
<g opacity="0.2">
<path opacity="0.2" d="M1098.19 331.073C1052.3 331.073 1014.93 293.704 1014.93 247.813C1014.93 201.922 1052.3 164.553 1098.19 164.553C1144.08 164.553 1181.45 201.922 1181.45 247.813C1181.45 293.704 1144.08 331.073 1098.19 331.073ZM1098.19 166.301C1053.17 166.301 1016.68 202.796 1016.68 247.813C1016.68 292.83 1053.17 329.325 1098.19 329.325C1143.2 329.325 1179.7 292.83 1179.7 247.813C1179.7 202.796 1143.2 166.301 1098.19 166.301Z" fill="white" fill-opacity="0.3"/>
</g>
<g opacity="0.2">
<path opacity="0.2" d="M1098.19 289.77C1075.02 289.77 1056.23 270.977 1056.23 247.813C1056.23 224.649 1075.02 205.855 1098.19 205.855C1121.35 205.855 1140.14 224.649 1140.14 247.813C1140.14 270.977 1121.35 289.77 1098.19 289.77ZM1098.19 207.385C1075.9 207.385 1057.76 225.523 1057.76 247.813C1057.76 270.103 1075.9 288.241 1098.19 288.241C1120.48 288.241 1138.62 270.103 1138.62 247.813C1138.62 225.523 1120.48 207.385 1098.19 207.385Z" fill="white" fill-opacity="0.3"/>
</g>
</g>
<path d="M497.449 810.746C497.23 810.746 496.793 810.746 496.575 810.527C496.356 810.309 496.356 810.09 496.356 809.653C496.356 809.435 496.356 809.435 496.356 809.216C496.356 808.997 496.575 808.997 496.575 808.779C496.575 808.779 496.793 808.56 497.012 808.56C497.23 808.56 497.667 808.56 497.886 808.56C498.104 808.56 498.104 808.779 498.323 808.779C498.323 808.779 498.541 808.997 498.541 809.216C498.541 809.435 498.541 809.435 498.541 809.653C498.541 809.872 498.541 810.309 498.323 810.527C498.323 810.527 498.104 810.746 497.886 810.746C497.667 810.746 497.449 810.746 497.449 810.746Z" fill="white" fill-opacity="0.3"/>
<path d="M498.76 793.482C498.104 793.482 497.667 792.826 497.886 792.171C497.886 791.515 498.541 791.296 499.197 791.296C499.852 791.296 500.289 791.952 500.071 792.608C499.852 793.045 499.415 793.482 498.76 793.482ZM503.13 776.655C502.475 776.436 502.256 775.781 502.475 775.344C502.693 774.688 503.349 774.47 503.786 774.688C504.442 774.907 504.66 775.562 504.442 775.999C504.223 776.436 503.786 776.655 503.349 776.655C503.349 776.873 503.349 776.655 503.13 776.655ZM510.342 760.921C509.905 760.702 509.686 759.828 509.905 759.391C510.123 758.954 510.779 758.735 511.435 758.954C511.872 759.173 512.09 759.828 511.872 760.484C511.653 760.921 511.216 761.139 510.997 761.139C510.779 761.139 510.56 761.139 510.342 760.921ZM519.957 746.498C519.52 746.061 519.302 745.405 519.739 744.968C520.176 744.531 520.831 744.313 521.268 744.75C521.705 745.187 521.924 745.842 521.487 746.279C521.268 746.498 521.05 746.716 520.613 746.716C520.394 746.716 520.176 746.716 519.957 746.498ZM531.539 733.605C531.102 733.168 531.102 732.512 531.539 732.075C531.976 731.638 532.632 731.638 533.069 732.075C533.506 732.512 533.506 733.168 533.069 733.605C532.85 733.823 532.632 733.823 532.413 733.823C531.976 734.042 531.758 733.823 531.539 733.605ZM711.826 723.115C711.826 722.46 712.263 722.022 712.919 722.022C713.575 722.022 714.012 722.46 714.012 723.115C714.012 723.771 713.575 724.208 712.919 724.208C712.482 724.208 712.045 723.771 711.826 723.115ZM695.655 723.552C695 723.552 694.562 722.897 694.781 722.46C694.781 721.804 695.437 721.367 696.092 721.585C696.748 721.585 697.185 722.241 696.966 722.897C696.748 723.334 696.311 723.771 695.655 723.552C695.655 723.771 695.655 723.552 695.655 723.552ZM544.87 722.678C544.651 722.241 544.651 721.585 545.088 721.148C545.525 720.711 546.181 720.93 546.618 721.367C546.836 721.804 546.836 722.46 546.399 722.897C546.181 723.115 545.962 723.115 545.744 723.115C545.525 723.115 545.088 723.115 544.87 722.678ZM728.872 720.274C728.653 719.619 729.09 719.182 729.527 718.963C730.183 718.745 730.62 719.182 730.838 719.619C731.057 720.274 730.62 720.711 730.183 720.93C729.964 720.93 729.964 720.93 729.746 720.93C729.527 721.148 729.09 720.711 728.872 720.274ZM678.391 720.493C677.736 720.274 677.517 719.837 677.517 719.182C677.736 718.526 678.173 718.308 678.828 718.308C679.484 718.526 679.702 718.963 679.702 719.619C679.484 720.056 679.047 720.493 678.61 720.493H678.391ZM661.565 716.122C660.909 715.904 660.69 715.248 660.909 714.811C661.127 714.155 661.783 713.937 662.22 714.155C662.876 714.374 663.094 714.811 662.876 715.467C662.657 715.904 662.22 716.341 661.783 716.341C661.783 716.122 661.783 716.122 661.565 716.122ZM559.948 713.937C559.73 713.281 559.948 712.844 560.385 712.407C561.041 712.189 561.478 712.407 561.915 712.844C562.133 713.281 561.915 713.937 561.478 714.374C561.259 714.374 561.259 714.374 561.041 714.374C560.385 714.592 559.948 714.374 559.948 713.937ZM744.824 713.5C744.606 713.063 744.606 712.189 745.261 711.97C745.698 711.752 746.354 711.752 746.791 712.407C747.01 712.844 747.01 713.718 746.354 713.937C746.136 713.937 745.917 714.155 745.699 714.155C745.48 713.937 745.043 713.937 744.824 713.5ZM644.956 711.315C644.301 711.096 644.082 710.659 644.082 710.003C644.301 709.348 644.956 709.129 645.393 709.348C646.049 709.566 646.267 710.003 646.049 710.659C645.83 711.096 645.393 711.533 644.956 711.533C645.175 711.315 644.956 711.315 644.956 711.315ZM575.901 707.381C575.682 706.725 576.119 706.288 576.556 706.07C577.212 705.851 577.649 706.288 577.868 706.725C578.086 707.381 577.649 707.818 577.212 708.037H576.993C576.556 708.255 576.119 708.037 575.901 707.381ZM628.129 707.162C627.474 706.944 627.255 706.507 627.255 705.851C627.474 705.196 627.911 704.977 628.567 704.977C629.222 705.196 629.441 705.633 629.441 706.288C629.441 706.725 629.004 707.162 628.129 707.162C628.348 707.162 628.348 707.162 628.129 707.162ZM592.946 703.885C592.946 703.229 593.383 702.792 594.039 702.792C594.694 702.792 595.131 703.229 595.131 703.666C595.131 704.322 594.694 704.759 594.257 704.977C594.257 704.977 594.257 704.977 594.039 704.977C593.383 704.977 592.946 704.54 592.946 703.885ZM611.084 704.54C610.429 704.54 609.991 703.885 609.991 703.447C609.991 702.792 610.647 702.355 611.084 702.355C611.74 702.355 612.177 703.01 612.177 703.447C612.395 704.103 611.74 704.54 611.084 704.54C611.303 704.54 611.303 704.54 611.084 704.54ZM759.029 703.447C758.592 703.01 758.81 702.355 759.247 701.918C759.684 701.481 760.34 701.481 760.777 702.136C761.214 702.573 761.214 703.229 760.777 703.666C760.559 703.885 760.34 703.885 760.122 703.885C759.466 703.885 759.247 703.885 759.029 703.447ZM771.485 691.428C771.048 690.991 771.048 690.336 771.485 689.899C771.922 689.462 772.578 689.462 773.015 689.899C773.452 690.336 773.452 690.991 773.015 691.428C772.796 691.647 772.578 691.865 772.141 691.865C771.922 691.647 771.704 691.647 771.485 691.428ZM782.412 678.098C781.974 677.661 781.756 677.005 782.193 676.568C782.63 676.131 783.286 675.913 783.723 676.35C784.16 676.787 784.378 677.442 783.941 677.88C783.723 678.098 783.286 678.317 783.067 678.317C782.849 678.317 782.63 678.317 782.412 678.098ZM792.682 663.894C792.245 663.456 792.027 662.801 792.464 662.364C792.901 661.927 793.557 661.708 793.994 662.145C794.431 662.582 794.649 663.238 794.212 663.675C793.994 663.894 793.557 664.112 793.338 664.112C792.901 664.112 792.682 664.112 792.682 663.894ZM802.298 649.689C801.861 649.252 801.642 648.596 802.079 648.159C802.298 647.722 803.172 647.504 803.609 647.941C804.046 648.159 804.265 649.034 803.827 649.471C803.609 649.908 803.172 649.908 802.953 649.908C802.516 649.689 802.298 649.689 802.298 649.689ZM811.913 635.266C811.476 634.829 811.257 634.174 811.695 633.736C812.132 633.299 812.787 633.081 813.224 633.518C813.661 633.955 813.88 634.611 813.443 635.048C813.224 635.266 812.787 635.485 812.569 635.485C812.35 635.485 812.132 635.266 811.913 635.266ZM1003.78 633.518C1003.78 632.862 1004.22 632.425 1004.87 632.425C1005.53 632.425 1005.97 632.862 1005.97 633.518C1005.97 634.174 1005.53 634.611 1004.87 634.611C1004.44 634.611 1003.78 634.174 1003.78 633.518ZM987.611 632.425C986.955 632.207 986.737 631.77 986.955 631.114C987.174 630.458 987.611 630.24 988.267 630.24C988.922 630.458 989.141 631.114 989.141 631.551C988.922 631.988 988.485 632.425 988.048 632.425C987.611 632.425 987.611 632.425 987.611 632.425ZM1021.05 631.114C1020.83 630.458 1021.26 630.021 1021.7 629.803C1022.36 629.584 1022.79 630.021 1023.01 630.459C1023.23 631.114 1022.79 631.551 1022.36 631.77H1022.14C1021.48 631.77 1021.05 631.551 1021.05 631.114ZM971.221 625.651C970.784 625.432 970.566 624.777 970.784 624.121C971.003 623.684 971.658 623.466 972.314 623.684C972.751 623.903 972.97 624.558 972.751 625.214C972.532 625.651 972.095 625.869 971.877 625.869C971.658 625.869 971.44 625.869 971.221 625.651ZM1037 624.558C1036.78 624.121 1037 623.466 1037.44 623.029C1037.87 622.81 1038.75 623.028 1038.97 623.466C1039.18 623.903 1038.97 624.558 1038.53 624.995C1038.31 624.995 1038.09 625.214 1038.09 625.214C1037.65 624.995 1037.22 624.777 1037 624.558ZM822.621 621.499C822.184 621.062 822.184 620.406 822.621 619.969C823.058 619.532 823.714 619.532 824.151 619.969C824.588 620.406 824.588 621.062 824.369 621.499C824.151 621.717 823.932 621.936 823.495 621.936C823.058 621.717 822.84 621.717 822.621 621.499ZM956.58 616.473C956.143 616.036 955.924 615.38 956.361 614.943C956.798 614.506 957.454 614.287 957.891 614.724C958.328 615.161 958.547 615.817 958.109 616.254C957.891 616.473 957.454 616.691 957.235 616.691C957.017 616.691 956.798 616.473 956.58 616.473ZM1051.42 614.943C1050.98 614.506 1051.2 613.85 1051.64 613.413C1052.08 612.976 1052.73 613.195 1053.17 613.632C1053.61 614.069 1053.39 614.724 1052.95 615.161C1052.73 615.38 1052.51 615.38 1052.3 615.38C1052.08 615.38 1051.64 615.38 1051.42 614.943ZM834.422 608.824C833.985 608.387 833.985 607.731 834.422 607.294C834.859 606.857 835.514 606.857 835.951 607.294C836.388 607.731 836.388 608.387 835.951 608.824C835.733 609.043 835.514 609.043 835.296 609.043C834.859 609.261 834.64 609.043 834.422 608.824ZM942.594 605.983C942.157 605.546 941.938 604.891 942.375 604.453C942.812 604.016 943.468 603.798 943.905 604.235C944.342 604.672 944.561 605.328 944.124 605.765C943.905 605.983 943.468 606.202 943.25 606.202C943.031 606.202 942.812 606.202 942.594 605.983ZM1064.32 603.579C1063.88 603.142 1063.88 602.487 1064.32 602.05C1064.75 601.613 1065.41 601.613 1065.84 602.05C1066.28 602.487 1066.28 603.142 1065.84 603.579C1065.63 603.798 1065.41 604.016 1064.97 604.016C1064.97 603.798 1064.53 603.798 1064.32 603.579ZM847.533 597.679C847.096 597.242 847.315 596.586 847.752 596.149C848.189 595.712 848.845 595.931 849.282 596.368C849.5 596.805 849.5 597.461 849.063 597.898C848.845 598.116 848.626 598.116 848.408 598.116C848.189 598.116 847.752 597.898 847.533 597.679ZM928.389 596.149C927.952 595.712 927.734 595.057 928.171 594.62C928.389 594.183 929.264 593.964 929.701 594.401C930.138 594.62 930.356 595.494 929.919 595.931C929.701 596.368 929.264 596.368 929.045 596.368C928.827 596.368 928.608 596.368 928.389 596.149ZM1075.9 590.468C1075.46 590.031 1075.24 589.375 1075.68 588.938C1076.12 588.501 1076.77 588.282 1077.21 588.719C1077.65 589.156 1077.86 589.812 1077.43 590.249C1077.21 590.468 1076.77 590.686 1076.55 590.686C1076.33 590.686 1075.9 590.686 1075.9 590.468ZM862.393 588.719C862.175 588.064 862.393 587.627 863.049 587.19C863.705 586.971 864.142 587.19 864.579 587.627C864.797 588.282 864.579 588.719 864.142 589.156C863.923 589.156 863.923 589.156 863.705 589.156C863.049 589.375 862.612 589.156 862.393 588.719ZM913.311 588.064C912.655 587.845 912.437 587.19 912.655 586.534C912.874 585.878 913.529 585.66 914.185 585.878C914.841 586.097 915.059 586.753 914.841 587.19C914.622 587.627 914.185 587.845 913.748 587.845C913.748 588.064 913.529 588.064 913.311 588.064ZM878.783 583.256C878.565 582.6 879.002 582.163 879.657 581.945C880.313 581.945 880.75 582.163 880.968 582.819C880.968 583.475 880.75 583.912 880.094 584.13H879.876C879.439 584.13 879.002 583.693 878.783 583.256ZM896.921 583.693C896.266 583.693 895.829 583.038 896.047 582.6C896.047 581.945 896.703 581.508 897.14 581.726C897.795 581.726 898.232 582.382 898.014 583.038C898.232 583.256 897.795 583.693 896.921 583.693C897.14 583.693 897.14 583.693 896.921 583.693ZM1085.73 576.263C1085.29 575.826 1085.08 575.17 1085.51 574.733C1085.73 574.296 1086.61 574.078 1087.04 574.296C1087.48 574.733 1087.7 575.389 1087.26 575.826C1087.04 576.045 1086.61 576.263 1086.39 576.263C1086.17 576.482 1085.95 576.482 1085.73 576.263ZM1094.91 561.622C1094.47 561.403 1094.25 560.529 1094.47 560.092C1094.69 559.655 1095.56 559.436 1096 559.655C1096.44 559.873 1096.66 560.747 1096.44 561.185C1096.22 561.622 1095.78 561.622 1095.56 561.622C1095.35 561.84 1095.13 561.622 1094.91 561.622ZM1104.09 546.762C1103.65 546.543 1103.43 545.887 1103.65 545.232C1103.87 544.795 1104.74 544.576 1105.18 544.795C1105.62 545.232 1105.84 545.887 1105.62 546.325C1105.4 546.543 1104.96 546.762 1104.74 546.762C1104.31 546.98 1104.31 546.98 1104.09 546.762ZM1113.27 532.12C1112.83 531.683 1112.61 531.027 1113.05 530.59C1113.48 530.153 1114.14 529.935 1114.58 530.372C1115.01 530.809 1115.23 531.464 1114.8 531.902C1114.58 532.12 1114.14 532.339 1113.92 532.339C1113.7 532.339 1113.48 532.339 1113.27 532.12ZM1123.54 518.134C1123.1 517.697 1123.1 517.042 1123.32 516.604C1123.76 516.167 1124.41 515.949 1124.85 516.386C1125.28 516.823 1125.5 517.479 1125.07 517.916C1124.85 518.134 1124.41 518.353 1124.19 518.353C1123.97 518.353 1123.76 518.353 1123.54 518.134ZM1135.12 505.241C1134.68 504.804 1134.68 504.148 1135.12 503.711C1135.56 503.274 1136.21 503.274 1136.65 503.711C1137.09 504.148 1137.09 504.804 1136.65 505.241C1136.43 505.459 1136.21 505.459 1135.99 505.459C1135.56 505.459 1135.34 505.459 1135.12 505.241ZM1148.23 494.096C1147.79 493.659 1148.01 493.003 1148.45 492.566C1148.89 492.129 1149.54 492.348 1149.98 492.785C1150.2 493.222 1150.2 493.877 1149.76 494.314C1149.54 494.533 1149.32 494.533 1149.1 494.533C1148.89 494.533 1148.45 494.533 1148.23 494.096ZM1163.53 485.792C1163.31 485.136 1163.53 484.699 1164.18 484.262C1164.84 484.044 1165.28 484.262 1165.49 484.918C1165.71 485.573 1165.49 486.01 1164.84 486.229C1164.62 486.229 1164.62 486.229 1164.4 486.229C1164.18 486.447 1163.75 486.229 1163.53 485.792ZM1214.88 483.388C1214.23 483.169 1214.01 482.514 1214.23 482.077C1214.45 481.421 1215.1 481.203 1215.54 481.421C1216.19 481.64 1216.41 482.295 1216.19 482.951C1215.97 483.388 1215.54 483.606 1215.1 483.606C1215.1 483.388 1214.88 483.388 1214.88 483.388ZM1179.92 480.329C1179.7 479.673 1180.14 479.236 1180.79 479.017C1181.45 478.799 1181.88 479.236 1182.1 479.891C1182.1 480.547 1181.88 480.984 1181.23 481.203H1181.01C1180.57 481.203 1180.14 480.984 1179.92 480.329ZM1197.18 478.799C1197.18 478.143 1197.62 477.706 1198.27 477.706C1198.93 477.706 1199.37 478.362 1199.37 478.799C1199.37 479.454 1198.93 479.891 1198.27 479.891C1197.62 479.891 1197.18 479.454 1197.18 478.799Z" fill="white" fill-opacity="0.3"/>
<path d="M1229.96 492.566C1229.74 492.566 1229.74 492.566 1229.52 492.566C1229.31 492.566 1229.3 492.348 1229.09 492.348C1229.09 492.348 1228.87 492.129 1228.87 491.911C1228.87 491.692 1228.87 491.692 1228.87 491.474C1228.87 491.255 1229.09 490.818 1229.09 490.599C1229.3 490.381 1229.96 490.162 1230.18 490.381C1230.4 490.381 1230.4 490.599 1230.62 490.599C1230.83 490.818 1230.83 491.037 1230.83 491.474C1230.83 491.692 1230.83 491.692 1230.83 491.911C1230.83 492.129 1230.62 492.129 1230.62 492.348C1230.62 492.566 1230.4 492.566 1229.96 492.566Z" fill="white" fill-opacity="0.3"/>
<path d="M720.786 117.569C720.568 117.569 720.568 117.569 720.349 117.569C720.131 117.569 720.131 117.351 719.912 117.351C719.912 117.351 719.694 117.132 719.694 116.913C719.694 116.695 719.694 116.695 719.694 116.476C719.694 116.258 719.694 116.258 719.694 116.039C719.694 115.821 719.912 115.821 719.912 115.602C720.131 115.384 720.786 115.165 721.005 115.384C721.223 115.384 721.223 115.602 721.442 115.602C721.442 115.602 721.66 115.821 721.66 116.039C721.66 116.258 721.66 116.258 721.66 116.476C721.66 116.695 721.66 116.695 721.66 116.913C721.66 117.132 721.442 117.132 721.442 117.351C721.223 117.351 721.005 117.569 720.786 117.569Z" fill="white" fill-opacity="0.3"/>
<path d="M56.6739 440.775C56.0183 440.775 55.5813 440.338 55.5813 439.682C55.5813 439.026 56.0183 438.589 56.6739 438.589C57.3295 438.589 57.7666 439.026 57.7666 439.682C57.7666 440.338 57.3295 440.775 56.6739 440.775ZM73.0637 437.715C72.8451 437.06 73.2822 436.623 73.9378 436.404C74.5934 436.186 75.0304 436.623 75.249 437.06C75.4675 437.715 75.0304 438.152 74.5934 438.371C74.3748 438.371 74.3748 438.371 74.3748 438.371C73.7192 438.589 73.2822 438.371 73.0637 437.715ZM39.1915 438.152C38.5359 437.934 38.3174 437.278 38.5359 436.841C38.7545 436.186 39.4101 435.967 39.8471 436.186C40.5027 436.404 40.7212 437.06 40.5027 437.497C40.2842 437.934 39.8471 438.152 39.4101 438.152H39.1915ZM89.2349 430.941C88.7978 430.504 89.0163 429.848 89.6719 429.411C90.109 428.974 90.7646 429.193 91.2016 429.63C91.4202 430.067 91.4202 430.722 90.7646 431.159C90.546 431.159 90.3275 431.378 90.109 431.378C89.6719 431.596 89.4534 431.378 89.2349 430.941ZM23.4574 429.63C23.0203 429.193 23.0203 428.537 23.2388 428.1C23.6759 427.663 24.3315 427.663 24.7686 427.881C25.2056 428.318 25.2056 428.974 24.9871 429.411C24.7686 429.63 24.55 429.848 24.113 429.848C23.8944 429.848 23.6759 429.848 23.4574 429.63ZM103.002 420.451C102.565 420.014 102.565 419.359 103.002 418.922C103.439 418.485 104.095 418.485 104.532 418.922C104.969 419.359 104.969 420.014 104.532 420.451C104.313 420.67 104.095 420.67 103.876 420.67C103.439 420.67 103.221 420.67 103.002 420.451ZM115.021 407.558C114.584 407.121 114.366 406.465 114.803 406.028C115.24 405.591 115.896 405.373 116.333 405.81C116.77 406.247 116.988 406.903 116.551 407.34C116.333 407.558 115.896 407.777 115.677 407.777C115.458 407.777 115.021 407.777 115.021 407.558ZM125.292 393.354C124.855 392.917 124.637 392.261 125.074 391.824C125.511 391.387 126.166 391.168 126.603 391.605C127.041 391.824 127.259 392.698 126.822 393.135C126.603 393.572 126.166 393.572 125.948 393.572C125.511 393.572 125.292 393.572 125.292 393.354ZM134.471 378.494C134.033 378.275 133.815 377.62 134.033 376.964C134.252 376.527 134.908 376.308 135.563 376.527C136 376.745 136.219 377.401 136 378.057C135.782 378.494 135.345 378.494 135.126 378.494C134.908 378.712 134.689 378.712 134.471 378.494ZM143.649 363.415C143.212 363.197 142.993 362.322 143.212 361.885C143.43 361.448 144.304 361.23 144.741 361.448C145.178 361.667 145.397 362.541 145.179 362.978C144.96 363.197 144.523 363.415 144.304 363.415C143.867 363.634 143.649 363.634 143.649 363.415ZM373.324 356.641C372.668 356.641 372.231 356.204 372.231 355.548C372.231 354.892 372.668 354.455 373.324 354.455C373.979 354.455 374.416 354.892 374.416 355.548C374.416 355.985 373.979 356.641 373.324 356.641ZM355.623 355.548C354.967 355.548 354.53 354.892 354.749 354.237C354.749 353.581 355.404 353.144 356.06 353.363C356.715 353.363 357.152 354.018 356.934 354.674C356.934 355.111 356.278 355.548 355.623 355.548C355.841 355.548 355.841 355.548 355.623 355.548ZM389.495 352.926C389.276 352.27 389.713 351.833 390.15 351.614C390.806 351.396 391.243 351.833 391.462 352.27C391.68 352.926 391.243 353.363 390.806 353.581H390.588C390.15 353.581 389.713 353.363 389.495 352.926ZM338.577 351.396C337.922 351.177 337.703 350.522 337.922 350.085C338.14 349.429 338.577 349.211 339.233 349.429C339.889 349.648 340.107 350.303 339.889 350.74C339.67 351.177 339.233 351.614 338.796 351.614L338.577 351.396ZM153.046 348.774C152.609 348.337 152.39 347.681 152.827 347.244C153.264 346.807 153.92 346.588 154.357 347.025C154.794 347.462 155.012 348.118 154.575 348.555C154.357 348.774 153.92 348.992 153.701 348.992C153.483 348.992 153.264 348.992 153.046 348.774ZM321.969 345.496C321.314 345.277 321.095 344.622 321.314 343.966C321.532 343.31 322.188 343.092 322.843 343.31C323.499 343.529 323.717 344.184 323.499 344.84C323.28 345.277 322.843 345.496 322.406 345.496C322.188 345.496 321.969 345.496 321.969 345.496ZM405.01 345.059C404.573 344.622 404.792 343.966 405.229 343.529C405.666 343.092 406.322 343.31 406.759 343.747C407.196 344.184 406.977 344.84 406.54 345.277C406.322 345.496 406.103 345.496 405.885 345.496C405.666 345.496 405.229 345.277 405.01 345.059ZM306.016 337.847C305.579 337.629 305.361 336.973 305.579 336.317C305.798 335.662 306.454 335.662 307.109 335.88C307.765 336.099 307.765 336.754 307.546 337.41C307.328 337.847 306.891 338.066 306.672 338.066C306.454 337.847 306.235 337.847 306.016 337.847ZM163.972 335.006C163.535 334.569 163.535 333.914 163.754 333.477C164.191 333.039 164.846 333.039 165.283 333.258C165.72 333.695 165.72 334.351 165.283 334.788C165.065 335.006 164.846 335.225 164.409 335.225C164.409 335.225 164.191 335.225 163.972 335.006ZM417.248 332.384C416.811 331.947 416.593 331.291 417.03 330.854C417.248 330.417 418.122 330.199 418.559 330.636C418.996 330.854 419.215 331.728 418.778 332.165C418.559 332.602 418.122 332.602 417.904 332.602C417.467 332.602 417.248 332.602 417.248 332.384ZM290.719 329.324C290.282 329.106 290.064 328.45 290.282 327.795C290.501 327.139 291.156 327.139 291.812 327.358C292.468 327.576 292.468 328.232 292.249 328.887C292.031 329.324 291.594 329.543 291.375 329.543C290.938 329.543 290.719 329.543 290.719 329.324ZM176.21 322.55C175.773 322.113 175.991 321.457 176.428 321.02C176.865 320.583 177.521 320.802 177.958 321.239C178.395 321.676 178.177 322.331 177.739 322.769C177.521 322.987 177.302 322.987 177.084 322.987C176.865 322.987 176.428 322.987 176.21 322.55ZM274.985 321.457C274.548 321.239 274.111 320.583 274.548 319.928C274.767 319.272 275.422 319.054 276.078 319.491C276.515 319.709 276.952 320.365 276.515 321.02C276.296 321.457 275.859 321.676 275.422 321.676C275.422 321.457 275.204 321.457 274.985 321.457ZM424.678 316.65C424.023 316.431 423.804 315.776 424.023 315.339C424.241 314.683 424.897 314.464 425.334 314.683C425.989 314.901 426.208 315.557 425.989 315.994C425.771 316.431 425.334 316.65 424.897 316.65C424.897 316.868 424.897 316.65 424.678 316.65ZM259.251 314.246C258.596 314.027 258.377 313.372 258.595 312.716C258.814 312.061 259.47 311.842 259.907 312.061C260.562 312.279 260.781 312.935 260.562 313.59C260.344 314.027 259.907 314.246 259.47 314.246H259.251ZM190.851 312.716C190.633 312.279 190.851 311.624 191.288 311.186C191.944 310.968 192.599 311.186 192.818 311.624C193.037 312.279 192.818 312.716 192.381 313.153C192.162 313.153 192.162 313.372 191.944 313.372C191.288 313.372 190.851 313.153 190.851 312.716ZM242.643 308.783C241.987 308.564 241.769 308.127 241.769 307.471C241.987 306.816 242.424 306.597 243.08 306.597C243.735 306.816 243.954 307.253 243.954 307.909C243.735 308.346 243.298 308.783 242.861 308.783H242.643ZM207.241 306.816C207.022 306.16 207.46 305.723 208.115 305.505C208.771 305.286 209.208 305.723 209.426 306.379C209.426 307.034 209.208 307.471 208.552 307.69H208.334C207.678 307.69 207.241 307.253 207.241 306.816ZM225.597 306.16C224.942 306.16 224.505 305.505 224.505 305.068C224.505 304.412 225.16 303.975 225.597 303.975C226.253 303.975 226.69 304.412 226.69 305.068C226.69 305.723 226.253 306.16 225.597 306.16ZM428.612 299.604C427.956 299.604 427.519 298.949 427.738 298.293C427.738 297.638 428.393 297.201 429.049 297.419C429.704 297.419 430.141 298.075 429.923 298.73C429.923 299.386 429.267 299.604 428.612 299.604C428.83 299.604 428.612 299.604 428.612 299.604ZM430.797 282.341C430.141 282.341 429.704 281.685 429.923 281.248C429.923 280.592 430.578 280.155 431.016 280.155C431.671 280.155 432.108 280.811 432.108 281.248C431.89 281.903 431.453 282.341 430.797 282.341ZM432.327 264.858C431.671 264.858 431.234 264.203 431.234 263.766C431.234 263.11 431.89 262.673 432.545 262.891C433.201 262.891 433.638 263.547 433.419 263.984C433.419 264.421 432.982 264.858 432.327 264.858C432.545 264.858 432.327 264.858 432.327 264.858ZM434.949 247.376C434.293 247.157 433.856 246.72 434.075 246.065C434.293 245.409 434.731 245.19 435.386 245.19C436.042 245.409 436.479 245.846 436.26 246.502C436.042 247.157 435.605 247.594 434.949 247.376C434.949 247.594 434.949 247.376 434.949 247.376ZM439.757 230.549C439.101 230.33 438.883 229.675 439.101 229.019C439.32 228.364 439.975 228.145 440.412 228.364C441.068 228.582 441.286 229.238 441.068 229.893C440.849 230.33 440.412 230.549 439.975 230.549C439.975 230.768 439.975 230.768 439.757 230.549ZM448.279 215.47C447.842 215.033 447.624 214.378 448.061 213.941C448.498 213.504 449.154 213.285 449.591 213.722C450.028 214.159 450.246 214.815 449.809 215.252C449.591 215.47 449.154 215.689 448.935 215.689C448.716 215.689 448.498 215.689 448.279 215.47ZM648.234 213.722C647.579 213.722 647.142 213.067 647.142 212.63C647.142 211.974 647.797 211.537 648.234 211.537C648.89 211.537 649.327 212.192 649.327 212.63C649.327 213.285 648.89 213.722 648.234 213.722ZM664.624 212.411C664.624 211.755 665.061 211.318 665.717 211.318C666.372 211.318 666.809 211.755 666.809 212.411C666.809 213.067 666.372 213.504 665.717 213.504C665.28 213.504 664.624 213.067 664.624 212.411ZM630.752 211.755C630.096 211.755 629.659 211.1 629.878 210.444C629.878 209.789 630.533 209.352 631.189 209.57C631.844 209.57 632.282 210.226 632.063 210.881C631.844 211.318 631.407 211.755 630.752 211.755ZM682.106 210.007C681.888 209.352 682.325 208.915 682.98 208.696C683.636 208.477 684.073 208.915 684.292 209.57C684.51 210.226 684.073 210.663 683.418 210.881H683.199C682.543 210.881 682.106 210.444 682.106 210.007ZM613.488 208.259C612.832 208.04 612.614 207.603 612.614 206.948C612.832 206.292 613.269 206.074 613.925 206.074C614.581 206.292 614.799 206.729 614.799 207.385C614.581 207.822 614.144 208.259 613.707 208.259H613.488ZM698.496 204.325C698.277 203.67 698.496 203.233 698.933 202.796C699.37 202.577 700.026 202.796 700.463 203.233C700.681 203.888 700.463 204.325 700.026 204.762C699.807 204.762 699.807 204.762 699.589 204.762C699.152 204.762 698.715 204.544 698.496 204.325ZM596.443 203.67C595.787 203.451 595.568 202.796 595.568 202.359C595.787 201.703 596.443 201.485 596.88 201.703C597.535 201.922 597.754 202.359 597.535 203.014C597.317 203.451 596.88 203.888 596.443 203.888C596.661 203.67 596.443 203.67 596.443 203.67ZM460.736 203.233C460.299 202.796 460.517 202.14 460.954 201.703C461.391 201.266 462.047 201.485 462.484 201.922C462.921 202.359 462.702 203.014 462.265 203.451C462.047 203.67 461.828 203.67 461.61 203.67C461.391 203.67 460.954 203.451 460.736 203.233ZM579.616 198.862C578.96 198.644 578.742 198.207 578.96 197.551C579.179 196.895 579.834 196.677 580.271 196.895C580.927 197.114 581.146 197.551 580.927 198.207C580.709 198.644 580.271 199.081 579.834 199.081C579.834 198.862 579.616 198.862 579.616 198.862ZM713.356 194.929C712.919 194.492 712.919 193.836 713.575 193.399C714.012 192.962 714.667 192.962 715.104 193.399C715.541 193.836 715.541 194.492 715.104 194.929C714.886 195.147 714.667 195.147 714.449 195.147C713.793 195.366 713.575 195.147 713.356 194.929ZM476.033 194.492C475.814 193.836 476.033 193.399 476.688 192.962C477.344 192.743 477.781 192.962 478.218 193.617C478.437 194.273 478.218 194.71 477.562 194.929C477.344 194.929 477.344 194.929 477.125 194.929C476.47 195.147 476.033 194.929 476.033 194.492ZM562.789 194.273C562.133 194.054 561.915 193.617 561.915 192.962C562.133 192.306 562.571 192.088 563.226 192.088C563.882 192.306 564.1 192.743 564.1 193.399C563.882 193.836 563.445 194.273 563.008 194.273C562.789 194.273 562.789 194.273 562.789 194.273ZM545.744 190.558C545.088 190.558 544.651 189.902 544.87 189.247C544.87 188.591 545.525 188.373 546.181 188.373C546.836 188.373 547.273 189.028 547.055 189.684C546.836 190.121 546.399 190.558 545.744 190.558ZM492.641 189.247C492.422 188.591 492.859 188.154 493.515 187.936C494.171 187.717 494.608 188.154 494.826 188.81C495.045 189.465 494.608 189.902 493.952 190.121H493.734C493.078 189.902 492.641 189.684 492.641 189.247ZM528.48 187.936C527.824 187.936 527.387 187.28 527.387 186.843C527.387 186.187 528.043 185.75 528.48 185.969C529.135 185.969 529.573 186.624 529.573 187.062C529.573 187.499 529.135 187.936 528.48 187.936ZM509.905 186.624C509.905 185.969 510.342 185.532 510.997 185.532C511.653 185.532 512.09 185.969 512.09 186.624C512.09 187.28 511.653 187.717 510.997 187.717C510.56 187.717 509.905 187.28 509.905 186.624ZM724.72 181.817C724.283 181.598 724.064 180.724 724.283 180.287C724.501 179.85 725.157 179.632 725.812 179.85C726.249 180.069 726.468 180.943 726.249 181.38C726.031 181.598 725.594 181.817 725.375 181.817C725.157 181.817 724.938 181.817 724.72 181.817ZM731.931 165.864C731.275 165.646 731.057 165.209 731.276 164.553C731.494 163.897 732.15 163.679 732.587 163.897C733.242 164.116 733.461 164.553 733.242 165.209C733.024 165.646 732.587 166.083 732.15 166.083C732.15 165.864 732.15 165.864 731.931 165.864ZM733.461 147.508C733.461 146.852 733.898 146.415 734.553 146.415C735.209 146.415 735.646 146.852 735.646 147.508C735.646 148.163 735.209 148.6 734.553 148.6C733.898 148.6 733.461 148.163 733.461 147.508ZM729.964 130.899C729.746 130.244 729.964 129.807 730.62 129.37C731.276 129.151 731.713 129.37 732.15 130.025C732.368 130.681 732.15 131.118 731.494 131.555C731.276 131.555 731.275 131.555 731.057 131.555C730.62 131.555 730.183 131.336 729.964 130.899Z" fill="white" fill-opacity="0.3"/>
<path d="M14.0606 415.644C13.8421 415.644 13.405 415.425 13.1865 415.425C13.1865 415.207 12.968 415.206 12.968 414.988C12.968 414.769 12.968 414.769 12.968 414.551C12.968 414.332 12.968 414.332 12.968 414.114C12.968 413.895 13.1865 413.895 13.1865 413.677C13.1865 413.458 13.405 413.458 13.6235 413.458C13.8421 413.458 14.2791 413.458 14.4977 413.458C14.7162 413.458 14.7162 413.677 14.9347 413.677C14.9347 413.677 15.1533 413.895 15.1533 414.114C15.1533 414.332 15.1533 414.332 15.1533 414.551C15.1533 414.769 15.1533 414.769 15.1533 414.988C15.1533 415.206 14.9347 415.207 14.9347 415.425C14.7162 415.425 14.7162 415.644 14.4977 415.644C14.2791 415.425 14.0606 415.644 14.0606 415.644Z" fill="white" fill-opacity="0.3"/>
<path d="M40.7212 363.415C38.3174 325.172 56.4553 285.619 87.0495 262.673C117.644 239.727 160.694 233.171 196.533 246.065C204.837 249.124 212.704 253.058 220.571 256.773C229.094 260.925 238.054 265.295 247.232 268.355C267.774 275.129 287.004 272.725 298.586 262.017C311.48 250.217 313.446 231.86 315.195 213.722C315.85 207.385 316.506 200.829 317.599 194.71C324.81 154.501 358.027 120.847 398.236 113.198L398.673 115.384C359.338 123.032 326.995 155.812 319.784 195.147C318.691 201.266 318.036 207.603 317.38 213.941C315.632 232.297 313.665 251.309 300.116 263.547C287.878 274.692 267.774 277.314 246.576 270.321C237.18 267.262 228.22 262.891 219.479 258.521C211.83 254.806 203.963 250.872 195.659 247.813C160.257 235.138 118.081 241.476 88.1422 264.203C58.2036 286.711 40.2841 325.609 42.688 362.978L40.7212 363.415Z" fill="white" fill-opacity="0.3"/>
<path d="M619.17 800.912C602.343 769.662 620.918 729.671 648.89 711.752C673.365 696.017 705.926 690.991 748.102 696.236C760.122 697.766 772.141 699.951 783.941 701.918C805.139 705.633 826.992 709.566 848.845 709.566C849.282 709.566 849.719 709.566 849.937 709.566C888.617 709.566 920.96 696.236 938.879 672.853C948.494 660.397 953.958 645.1 959.421 630.021C966.632 610.354 974.062 589.812 990.671 576.7C1020.17 552.88 1063.22 563.807 1090.98 580.415C1104.96 588.719 1118.07 599.209 1130.75 609.043C1145.39 620.625 1160.25 632.425 1176.86 641.385C1206.36 657.119 1249.19 662.145 1273.45 636.14L1274.98 637.67C1249.85 664.549 1205.92 659.523 1175.77 643.352C1158.94 634.392 1143.86 622.373 1129.22 610.791C1116.76 600.738 1103.65 590.467 1089.66 582.163C1062.57 565.992 1020.61 555.284 991.982 578.448C976.029 591.342 969.036 610.572 961.606 630.896C956.143 645.974 950.461 661.49 940.627 674.164C922.271 698.203 888.836 711.97 848.845 711.752C826.992 711.533 804.92 707.818 783.723 703.884C771.922 701.918 759.903 699.732 747.884 698.203C706.145 692.958 674.239 697.984 649.982 713.281C622.885 730.545 604.747 769.443 620.918 799.601L619.17 800.912Z" fill="white" fill-opacity="0.3"/>
<path d="M408.231 253.117L367.283 294.066L368.828 295.611L409.776 254.662L408.231 253.117Z" fill="white" fill-opacity="0.3"/>
<path d="M523.494 648.074L428.308 743.274L429.854 744.819L525.04 649.62L523.494 648.074Z" fill="white" fill-opacity="0.3"/>
<path d="M1086.79 403.321L965.628 524.467L967.173 526.012L1088.34 404.867L1086.79 403.321Z" fill="white" fill-opacity="0.3"/>
<path d="M797.49 199.955C797.272 199.955 796.834 199.736 796.616 199.518C796.616 199.518 796.397 199.299 796.397 199.081C796.397 198.862 796.397 198.862 796.397 198.644C796.397 198.425 796.397 198.425 796.397 198.206C796.397 197.988 796.616 197.988 796.616 197.769C797.053 197.332 797.709 197.332 798.146 197.769C798.146 197.769 798.364 197.988 798.364 198.206C798.364 198.425 798.364 198.425 798.364 198.644C798.364 198.862 798.364 198.862 798.364 199.081C798.364 199.299 798.146 199.299 798.146 199.518C797.927 199.518 797.927 199.736 797.709 199.736C797.709 199.955 797.49 199.955 797.49 199.955Z" fill="white" fill-opacity="0.3"/>
<path d="M1125.07 198.862C1125.07 198.206 1125.5 197.769 1126.16 197.769C1126.81 197.769 1127.25 198.206 1127.25 198.862C1127.25 199.518 1126.81 199.955 1126.16 199.955C1125.5 199.955 1125.07 199.518 1125.07 198.862ZM1107.8 198.862C1107.8 198.206 1108.24 197.769 1108.9 197.769C1109.55 197.769 1109.99 198.206 1109.99 198.862C1109.99 199.518 1109.55 199.955 1108.9 199.955C1108.24 199.955 1107.8 199.518 1107.8 198.862ZM1090.32 198.862C1090.32 198.206 1090.76 197.769 1091.41 197.769C1092.07 197.769 1092.51 198.206 1092.51 198.862C1092.51 199.518 1092.07 199.955 1091.41 199.955C1090.98 199.955 1090.32 199.518 1090.32 198.862ZM1073.06 198.862C1073.06 198.206 1073.49 197.769 1074.15 197.769C1074.8 197.769 1075.24 198.206 1075.24 198.862C1075.24 199.518 1074.8 199.955 1074.15 199.955C1073.71 199.955 1073.06 199.518 1073.06 198.862ZM1055.79 198.862C1055.79 198.206 1056.23 197.769 1056.88 197.769C1057.54 197.769 1057.98 198.206 1057.98 198.862C1057.98 199.518 1057.54 199.955 1056.88 199.955C1056.23 199.955 1055.79 199.518 1055.79 198.862ZM1038.53 198.862C1038.53 198.206 1038.97 197.769 1039.62 197.769C1040.28 197.769 1040.71 198.206 1040.71 198.862C1040.71 199.518 1040.28 199.955 1039.62 199.955C1038.97 199.955 1038.53 199.518 1038.53 198.862ZM1021.26 198.862C1021.26 198.206 1021.7 197.769 1022.36 197.769C1023.01 197.769 1023.45 198.206 1023.45 198.862C1023.45 199.518 1023.01 199.955 1022.36 199.955C1021.7 199.955 1021.26 199.518 1021.26 198.862ZM1004 198.862C1004 198.206 1004.44 197.769 1005.09 197.769C1005.75 197.769 1006.19 198.206 1006.19 198.862C1006.19 199.518 1005.75 199.955 1005.09 199.955C1004.44 199.955 1004 199.518 1004 198.862ZM986.518 198.862C986.518 198.206 986.955 197.769 987.611 197.769C988.267 197.769 988.704 198.206 988.704 198.862C988.704 199.518 988.267 199.955 987.611 199.955C987.174 199.955 986.518 199.518 986.518 198.862ZM969.255 198.862C969.255 198.206 969.692 197.769 970.347 197.769C971.003 197.769 971.44 198.206 971.44 198.862C971.44 199.518 971.003 199.955 970.347 199.955C969.91 199.955 969.255 199.518 969.255 198.862ZM951.991 198.862C951.991 198.206 952.428 197.769 953.083 197.769C953.739 197.769 954.176 198.206 954.176 198.862C954.176 199.518 953.739 199.955 953.083 199.955C952.428 199.955 951.991 199.518 951.991 198.862ZM934.727 198.862C934.727 198.206 935.164 197.769 935.819 197.769C936.475 197.769 936.912 198.206 936.912 198.862C936.912 199.518 936.475 199.955 935.819 199.955C935.164 199.955 934.727 199.518 934.727 198.862ZM917.463 198.862C917.463 198.206 917.9 197.769 918.556 197.769C919.211 197.769 919.648 198.206 919.648 198.862C919.648 199.518 919.211 199.955 918.556 199.955C917.9 199.955 917.463 199.518 917.463 198.862ZM900.199 198.862C900.199 198.206 900.636 197.769 901.292 197.769C901.947 197.769 902.384 198.206 902.384 198.862C902.384 199.518 901.947 199.955 901.292 199.955C900.636 199.955 900.199 199.518 900.199 198.862ZM882.935 198.862C882.935 198.206 883.372 197.769 884.028 197.769C884.683 197.769 885.121 198.206 885.121 198.862C885.121 199.518 884.683 199.955 884.028 199.955C883.372 199.955 882.935 199.518 882.935 198.862ZM865.453 198.862C865.453 198.206 865.89 197.769 866.545 197.769C867.201 197.769 867.638 198.206 867.638 198.862C867.638 199.518 867.201 199.955 866.545 199.955C866.108 199.955 865.453 199.518 865.453 198.862ZM848.189 198.862C848.189 198.206 848.626 197.769 849.282 197.769C849.937 197.769 850.374 198.206 850.374 198.862C850.374 199.518 849.937 199.955 849.282 199.955C848.626 199.955 848.189 199.518 848.189 198.862ZM830.925 198.862C830.925 198.206 831.362 197.769 832.018 197.769C832.673 197.769 833.11 198.206 833.11 198.862C833.11 199.518 832.673 199.955 832.018 199.955C831.362 199.955 830.925 199.518 830.925 198.862ZM813.661 198.862C813.661 198.206 814.098 197.769 814.754 197.769C815.41 197.769 815.847 198.206 815.847 198.862C815.847 199.518 815.41 199.955 814.754 199.955C814.098 199.955 813.661 199.518 813.661 198.862Z" fill="white" fill-opacity="0.3"/>
<path d="M1143.42 199.955C1143.2 199.955 1143.2 199.955 1142.99 199.955C1142.77 199.955 1142.77 199.736 1142.55 199.736C1142.33 199.518 1142.33 199.299 1142.33 199.081C1142.33 198.862 1142.33 198.862 1142.33 198.644C1142.33 198.425 1142.55 198.425 1142.55 198.207C1142.77 198.207 1142.77 197.988 1142.99 197.988C1143.42 197.769 1143.86 197.988 1144.08 198.207C1144.08 198.207 1144.3 198.425 1144.3 198.644C1144.3 198.862 1144.3 198.862 1144.3 199.081C1144.3 199.299 1144.3 199.736 1144.08 199.736C1143.86 199.955 1143.64 199.955 1143.42 199.955Z" fill="white" fill-opacity="0.3"/>
<path d="M2.04144 726.393C1.82291 726.393 1.38585 726.393 1.38585 725.956C1.16732 725.738 0.948792 725.519 0.948792 725.301C0.948792 725.082 1.16732 724.645 1.38585 724.426C1.38585 724.426 1.60438 724.208 1.82291 724.208C2.25997 723.989 2.69703 724.208 3.13409 724.426C3.13409 724.645 3.35262 724.645 3.35262 724.864C3.35262 725.082 3.35262 725.082 3.35262 725.301C3.35262 725.519 3.35262 725.956 3.13409 725.956C2.4785 726.393 2.25997 726.393 2.04144 726.393Z" fill="white" fill-opacity="0.3"/>
<path d="M329.618 725.301C329.618 724.645 330.055 724.208 330.71 724.208C331.366 724.208 331.803 724.645 331.803 725.301C331.803 725.956 331.366 726.393 330.71 726.393C330.055 726.393 329.618 725.956 329.618 725.301ZM312.354 725.301C312.354 724.645 312.791 724.208 313.446 724.208C314.102 724.208 314.539 724.645 314.539 725.301C314.539 725.956 314.102 726.393 313.446 726.393C312.791 726.393 312.354 725.956 312.354 725.301ZM294.871 725.301C294.871 724.645 295.309 724.208 295.964 724.208C296.62 724.208 297.057 724.645 297.057 725.301C297.057 725.956 296.62 726.393 295.964 726.393C295.527 726.393 294.871 725.956 294.871 725.301ZM277.608 725.301C277.608 724.645 278.045 724.208 278.7 724.208C279.356 724.208 279.793 724.645 279.793 725.301C279.793 725.956 279.356 726.393 278.7 726.393C278.263 726.393 277.608 725.956 277.608 725.301ZM260.344 725.301C260.344 724.645 260.781 724.208 261.436 724.208C262.092 724.208 262.529 724.645 262.529 725.301C262.529 725.956 262.092 726.393 261.436 726.393C260.781 726.393 260.344 725.956 260.344 725.301ZM243.08 725.301C243.08 724.645 243.517 724.208 244.173 724.208C244.828 724.208 245.265 724.645 245.265 725.301C245.265 725.956 244.828 726.393 244.173 726.393C243.517 726.393 243.08 725.956 243.08 725.301ZM225.816 725.301C225.816 724.645 226.253 724.208 226.909 724.208C227.564 724.208 228.001 724.645 228.001 725.301C228.001 725.956 227.564 726.393 226.909 726.393C226.253 726.393 225.816 725.956 225.816 725.301ZM208.552 725.301C208.552 724.645 208.989 724.208 209.645 724.208C210.3 724.208 210.737 724.645 210.737 725.301C210.737 725.956 210.3 726.393 209.645 726.393C208.989 726.393 208.552 725.956 208.552 725.301ZM191.07 725.301C191.07 724.645 191.507 724.208 192.162 724.208C192.818 724.208 193.255 724.645 193.255 725.301C193.255 725.956 192.818 726.393 192.162 726.393C191.725 726.393 191.07 725.956 191.07 725.301ZM173.806 725.301C173.806 724.645 174.243 724.208 174.899 724.208C175.554 724.208 175.991 724.645 175.991 725.301C175.991 725.956 175.554 726.393 174.899 726.393C174.461 726.393 173.806 725.956 173.806 725.301ZM156.542 725.301C156.542 724.645 156.979 724.208 157.635 724.208C158.29 724.208 158.727 724.645 158.727 725.301C158.727 725.956 158.29 726.393 157.635 726.393C156.979 726.393 156.542 725.956 156.542 725.301ZM139.278 725.301C139.278 724.645 139.715 724.208 140.371 724.208C141.026 724.208 141.463 724.645 141.463 725.301C141.463 725.956 141.026 726.393 140.371 726.393C139.715 726.393 139.278 725.956 139.278 725.301ZM122.014 725.301C122.014 724.645 122.451 724.208 123.107 724.208C123.763 724.208 124.2 724.645 124.2 725.301C124.2 725.956 123.763 726.393 123.107 726.393C122.451 726.393 122.014 725.956 122.014 725.301ZM104.75 725.301C104.75 724.645 105.188 724.208 105.843 724.208C106.499 724.208 106.936 724.645 106.936 725.301C106.936 725.956 106.499 726.393 105.843 726.393C105.188 726.393 104.75 725.956 104.75 725.301ZM87.4866 725.301C87.4866 724.645 87.9237 724.208 88.5793 724.208C89.2349 724.208 89.6719 724.645 89.6719 725.301C89.6719 725.956 89.2349 726.393 88.5793 726.393C87.9237 726.393 87.4866 725.956 87.4866 725.301ZM70.0042 725.301C70.0042 724.645 70.4413 724.208 71.0969 724.208C71.7525 724.208 72.1895 724.645 72.1895 725.301C72.1895 725.956 71.7525 726.393 71.0969 726.393C70.6598 726.393 70.0042 725.956 70.0042 725.301ZM52.7404 725.301C52.7404 724.645 53.1774 724.208 53.833 724.208C54.4886 724.208 54.9257 724.645 54.9257 725.301C54.9257 725.956 54.4886 726.393 53.833 726.393C53.1774 726.393 52.7404 725.956 52.7404 725.301ZM35.4765 725.301C35.4765 724.645 35.9136 724.208 36.5692 724.208C37.2248 724.208 37.6618 724.645 37.6618 725.301C37.6618 725.956 37.2248 726.393 36.5692 726.393C35.9136 726.393 35.4765 725.956 35.4765 725.301ZM18.2127 725.301C18.2127 724.645 18.6497 724.208 19.3053 724.208C19.9609 724.208 20.398 724.645 20.398 725.301C20.398 725.956 19.9609 726.393 19.3053 726.393C18.6497 726.393 18.2127 725.956 18.2127 725.301Z" fill="white" fill-opacity="0.3"/>
<path d="M347.974 726.393C347.756 726.393 347.756 726.393 347.537 726.393C347.319 726.393 347.319 726.175 347.1 726.175C346.882 725.956 346.882 725.738 346.882 725.519C346.882 725.301 347.1 724.864 347.1 724.645C347.537 724.208 348.193 724.208 348.63 724.645C348.848 724.864 349.067 725.082 349.067 725.519C349.067 725.738 348.848 726.175 348.63 726.175C348.411 726.393 348.193 726.393 347.974 726.393Z" fill="white" fill-opacity="0.3"/>
<path d="M217.512 182.035C196.752 182.035 179.925 165.209 179.925 144.448C179.925 123.688 196.97 107.08 217.512 107.08C238.054 107.08 255.099 123.906 255.099 144.667C255.099 165.427 238.272 182.035 217.512 182.035ZM217.512 118.006C202.87 118.006 190.851 130.025 190.851 144.667C190.851 159.308 202.87 171.327 217.512 171.327C232.153 171.327 244.173 159.308 244.173 144.667C244.173 129.807 232.372 118.006 217.512 118.006Z" fill="white" fill-opacity="0.3"/>
<path d="M1036.34 803.753C1015.58 803.753 998.756 786.926 998.756 766.166C998.756 745.405 1015.58 728.579 1036.34 728.579C1057.1 728.579 1073.93 745.405 1073.93 766.166C1073.93 786.926 1057.1 803.753 1036.34 803.753ZM1036.34 739.505C1021.7 739.505 1009.68 751.524 1009.68 766.166C1009.68 780.807 1021.7 792.826 1036.34 792.826C1050.98 792.826 1063 780.807 1063 766.166C1063 751.524 1050.98 739.505 1036.34 739.505Z" fill="white" fill-opacity="0.3"/>
</g>
</svg>
