<svg width="1346" height="811" fill="none" xmlns="http://www.w3.org/2000/svg"><g style="mix-blend-mode:hard-light" fill="#fff" fill-opacity=".3"><g opacity=".2"><path opacity=".2" d="M150.205 710.003c-74.956 0-135.926-60.969-135.926-135.925 0-74.956 60.97-135.926 135.926-135.926 74.955 0 135.925 60.97 135.925 135.926 0 74.956-60.97 135.925-135.925 135.925zm0-270.102c-74.082 0-134.178 60.095-134.178 134.177s60.096 134.177 134.178 134.177c74.081 0 134.177-60.095 134.177-134.177 0-73.863-60.096-134.177-134.177-134.177z"/><path opacity=".2" d="M150.205 687.495c-62.5 0-113.417-50.917-113.417-113.417s50.917-113.417 113.417-113.417c62.499 0 113.417 50.917 113.417 113.417s-50.918 113.417-113.417 113.417zm0-225.086c-61.626 0-111.669 50.044-111.669 111.669s50.043 111.669 111.669 111.669c61.625 0 111.668-50.044 111.668-111.669 0-61.407-50.043-111.669-111.668-111.669z"/><path opacity=".2" d="M150.205 664.986c-50.044 0-90.909-40.646-90.909-90.908 0-50.043 40.647-90.909 90.909-90.909 50.262 0 90.908 40.647 90.908 90.909 0 50.262-40.865 90.908-90.908 90.908zm0-180.068c-49.169 0-89.16 39.991-89.16 89.16s39.991 89.16 89.16 89.16 89.16-39.991 89.16-89.16-39.991-89.16-89.16-89.16z"/><path opacity=".2" d="M150.205 642.478c-37.587 0-68.4-30.594-68.4-68.4 0-37.587 30.594-68.4 68.4-68.4 37.587 0 68.4 30.594 68.4 68.4 0 37.806-30.595 68.4-68.4 68.4zm0-135.052c-36.713 0-66.652 29.939-66.652 66.652s29.939 66.652 66.652 66.652 66.651-29.939 66.651-66.652-29.72-66.652-66.651-66.652z"/><path opacity=".2" d="M150.205 619.969c-25.35 0-45.892-20.542-45.892-45.891 0-25.35 20.542-45.891 45.892-45.891 25.349 0 45.891 20.541 45.891 45.891 0 25.349-20.542 45.891-45.891 45.891zm0-90.034c-24.257 0-44.143 19.886-44.143 44.143s19.886 44.143 44.143 44.143c24.256 0 44.143-19.886 44.143-44.143s-19.668-44.143-44.143-44.143z"/><path opacity=".2" d="M150.205 597.461c-12.894 0-23.383-10.49-23.383-23.383 0-12.893 10.489-23.383 23.383-23.383 12.893 0 23.382 10.49 23.382 23.383 0 12.893-10.489 23.383-23.382 23.383zm0-45.018c-12.019 0-21.635 9.834-21.635 21.635 0 11.801 9.834 21.634 21.635 21.634 12.019 0 21.634-9.833 21.634-21.634s-9.615-21.635-21.634-21.635z"/></g><g opacity=".2"><path opacity=".2" d="M1098.19 495.626c-136.584 0-247.816-111.232-247.816-247.813S961.606 0 1098.19 0C1234.77 0 1346 111.232 1346 247.813s-111.23 247.813-247.81 247.813zm0-493.878c-135.71 0-246.286 110.358-246.286 246.283 0 135.707 110.358 246.284 246.286 246.284 135.7 0 246.28-110.358 246.28-246.284 0-135.925-110.58-246.283-246.28-246.283z"/><path opacity=".2" d="M1098.19 454.542c-113.857 0-206.732-92.657-206.732-206.729 0-113.854 92.657-206.73 206.732-206.73 113.85 0 206.73 92.657 206.73 206.73 0 114.072-92.66 206.729-206.73 206.729zm0-411.71c-112.983 0-204.984 92.001-204.984 204.981 0 112.98 92.001 204.981 204.984 204.981 112.98 0 204.98-92.001 204.98-204.981 0-112.98-92-204.981-204.98-204.981z"/><path opacity=".2" d="M1098.19 413.24c-91.35 0-165.43-74.3-165.43-165.427 0-91.346 74.3-165.427 165.43-165.427 91.34 0 165.42 74.3 165.42 165.427 0 91.345-74.08 165.427-165.42 165.427zm0-329.325c-90.26 0-163.9 73.426-163.9 163.898 0 90.471 73.43 163.897 163.9 163.897 90.25 0 163.89-73.426 163.89-163.897 0-90.472-73.42-163.898-163.89-163.898z"/><path opacity=".2" d="M1098.19 372.156c-68.62 0-124.346-55.725-124.346-124.343s55.726-124.344 124.346-124.344 124.34 55.726 124.34 124.344-55.72 124.343-124.34 124.343zm0-246.938c-67.75 0-122.598 55.069-122.598 122.595s55.068 122.595 122.598 122.595c67.74 0 122.59-55.069 122.59-122.595s-54.85-122.595-122.59-122.595z"/><path opacity=".2" d="M1098.19 331.073c-45.89 0-83.26-37.369-83.26-83.26 0-45.891 37.37-83.26 83.26-83.26 45.89 0 83.26 37.369 83.26 83.26 0 45.891-37.37 83.26-83.26 83.26zm0-164.772c-45.02 0-81.51 36.495-81.51 81.512s36.49 81.512 81.51 81.512c45.01 0 81.51-36.495 81.51-81.512s-36.5-81.512-81.51-81.512z"/><path opacity=".2" d="M1098.19 289.77c-23.17 0-41.96-18.793-41.96-41.957s18.79-41.958 41.96-41.958c23.16 0 41.95 18.794 41.95 41.958 0 23.164-18.79 41.957-41.95 41.957zm0-82.385c-22.29 0-40.43 18.138-40.43 40.428 0 22.29 18.14 40.428 40.43 40.428s40.43-18.138 40.43-40.428c0-22.29-18.14-40.428-40.43-40.428z"/></g><path d="M497.449 810.746c-.219 0-.656 0-.874-.219-.219-.218-.219-.437-.219-.874v-.437c0-.219.219-.219.219-.437 0 0 .218-.219.437-.219h.874c.218 0 .218.219.437.219 0 0 .218.218.218.437v.437c0 .219 0 .656-.218.874 0 0-.219.219-.437.219h-.437zm1.311-17.264c-.656 0-1.093-.656-.874-1.311 0-.656.655-.875 1.311-.875.655 0 1.092.656.874 1.312-.219.437-.656.874-1.311.874zm4.37-16.827c-.655-.219-.874-.874-.655-1.311.218-.656.874-.874 1.311-.656.656.219.874.874.656 1.311a1.203 1.203 0 01-1.093.656c0 .218 0 0-.219 0zm7.212-15.734c-.437-.219-.656-1.093-.437-1.53.218-.437.874-.656 1.53-.437.437.219.655.874.437 1.53-.219.437-.656.655-.875.655-.218 0-.437 0-.655-.218zm9.615-14.423c-.437-.437-.655-1.093-.218-1.53.437-.437 1.092-.655 1.529-.218.437.437.656 1.092.219 1.529-.219.219-.437.437-.874.437-.219 0-.437 0-.656-.218zm11.582-12.893a1.057 1.057 0 010-1.53 1.057 1.057 0 011.53 0 1.057 1.057 0 010 1.53c-.219.218-.437.218-.656.218-.437.219-.655 0-.874-.218zm180.287-10.49c0-.655.437-1.093 1.093-1.093.656 0 1.093.438 1.093 1.093 0 .656-.437 1.093-1.093 1.093-.437 0-.874-.437-1.093-1.093zm-16.171.437c-.655 0-1.093-.655-.874-1.092 0-.656.656-1.093 1.311-.875.656 0 1.093.656.874 1.312-.218.437-.655.874-1.311.655 0 .219 0 0 0 0zm-150.785-.874c-.219-.437-.219-1.093.218-1.53.437-.437 1.093-.218 1.53.219.218.437.218 1.093-.219 1.53-.218.218-.437.218-.655.218-.219 0-.656 0-.874-.437zm184.002-2.404c-.219-.655.218-1.092.655-1.311.656-.218 1.093.219 1.311.656.219.655-.218 1.092-.655 1.311h-.437c-.219.218-.656-.219-.874-.656zm-50.481.219c-.655-.219-.874-.656-.874-1.311.219-.656.656-.874 1.311-.874.656.218.874.655.874 1.311-.218.437-.655.874-1.092.874h-.219zm-16.826-4.371c-.656-.218-.875-.874-.656-1.311.218-.656.874-.874 1.311-.656.656.219.874.656.656 1.312-.219.437-.656.874-1.093.874 0-.219 0-.219-.218-.219zm-101.617-2.185c-.218-.656 0-1.093.437-1.53.656-.218 1.093 0 1.53.437.218.437 0 1.093-.437 1.53h-.437c-.656.218-1.093 0-1.093-.437zm184.876-.437c-.218-.437-.218-1.311.437-1.53.437-.218 1.093-.218 1.53.437.219.437.219 1.311-.437 1.53-.218 0-.437.218-.655.218-.219-.218-.656-.218-.875-.655zm-99.868-2.185c-.655-.219-.874-.656-.874-1.312.219-.655.874-.874 1.311-.655.656.218.874.655.656 1.311-.219.437-.656.874-1.093.874.219-.218 0-.218 0-.218zm-69.055-3.934c-.219-.656.218-1.093.655-1.311.656-.219 1.093.218 1.312.655.218.656-.219 1.093-.656 1.312h-.219c-.437.218-.874 0-1.092-.656zm52.228-.219c-.655-.218-.874-.655-.874-1.311.219-.655.656-.874 1.312-.874.655.219.874.656.874 1.311 0 .437-.437.874-1.312.874.219 0 .219 0 0 0zm-35.183-3.277c0-.656.437-1.093 1.093-1.093.655 0 1.092.437 1.092.874 0 .656-.437 1.093-.874 1.311h-.218c-.656 0-1.093-.437-1.093-1.092zm18.138.655c-.655 0-1.093-.655-1.093-1.093 0-.655.656-1.092 1.093-1.092.656 0 1.093.655 1.093 1.092.218.656-.437 1.093-1.093 1.093.219 0 .219 0 0 0zm147.945-1.093c-.437-.437-.219-1.092.218-1.529.437-.437 1.093-.437 1.53.218a1.057 1.057 0 010 1.53c-.218.219-.437.219-.655.219-.656 0-.875 0-1.093-.438zm12.456-12.019a1.056 1.056 0 010-1.529 1.057 1.057 0 011.53 0 1.056 1.056 0 010 1.529c-.219.219-.437.437-.874.437-.219-.218-.437-.218-.656-.437zm10.927-13.33c-.438-.437-.656-1.093-.219-1.53.437-.437 1.093-.655 1.53-.218.437.437.655 1.092.218 1.53-.218.218-.655.437-.874.437-.218 0-.437 0-.655-.219zm10.27-14.204c-.437-.438-.655-1.093-.218-1.53.437-.437 1.093-.656 1.53-.219.437.437.655 1.093.218 1.53-.218.219-.655.437-.874.437-.437 0-.656 0-.656-.218zm9.616-14.205c-.437-.437-.656-1.093-.219-1.53.219-.437 1.093-.655 1.53-.218.437.218.656 1.093.218 1.53-.218.437-.655.437-.874.437-.437-.219-.655-.219-.655-.219zm9.615-14.423c-.437-.437-.656-1.092-.218-1.53.437-.437 1.092-.655 1.529-.218.437.437.656 1.093.219 1.53-.219.218-.656.437-.874.437-.219 0-.437-.219-.656-.219zm191.867-1.748c0-.656.44-1.093 1.09-1.093.66 0 1.1.437 1.1 1.093 0 .656-.44 1.093-1.1 1.093-.43 0-1.09-.437-1.09-1.093zm-16.169-1.093c-.656-.218-.874-.655-.656-1.311.219-.656.656-.874 1.312-.874.655.218.874.874.874 1.311-.219.437-.656.874-1.093.874h-.437zm33.439-1.311c-.22-.656.21-1.093.65-1.311.66-.219 1.09.218 1.31.656.22.655-.22 1.092-.65 1.311h-.22c-.66 0-1.09-.219-1.09-.656zm-49.829-5.463c-.437-.219-.655-.874-.437-1.53.219-.437.874-.655 1.53-.437.437.219.656.874.437 1.53-.219.437-.656.655-.874.655-.219 0-.437 0-.656-.218zm65.779-1.093c-.22-.437 0-1.092.44-1.529.43-.219 1.31-.001 1.53.437.21.437 0 1.092-.44 1.529-.22 0-.44.219-.44.219-.44-.219-.87-.437-1.09-.656zm-214.379-3.059a1.057 1.057 0 010-1.53 1.057 1.057 0 011.53 0c.437.437.437 1.093.218 1.53-.218.218-.437.437-.874.437-.437-.219-.655-.219-.874-.437zm133.959-5.026c-.437-.437-.656-1.093-.219-1.53.437-.437 1.093-.656 1.53-.219.437.437.656 1.093.218 1.53-.218.219-.655.437-.874.437-.218 0-.437-.218-.655-.218zm94.84-1.53c-.44-.437-.22-1.093.22-1.53.44-.437 1.09-.218 1.53.219.44.437.22 1.092-.22 1.529-.22.219-.44.219-.65.219-.22 0-.66 0-.88-.437zm-216.998-6.119a1.057 1.057 0 010-1.53 1.056 1.056 0 011.529 0 1.057 1.057 0 010 1.53c-.218.219-.437.219-.655.219-.437.218-.656 0-.874-.219zm108.172-2.841c-.437-.437-.656-1.092-.219-1.53.437-.437 1.093-.655 1.53-.218.437.437.656 1.093.219 1.53-.219.218-.656.437-.874.437-.219 0-.438 0-.656-.219zm121.726-2.404a1.05 1.05 0 010-1.529 1.045 1.045 0 011.52 0 1.05 1.05 0 010 1.529c-.21.219-.43.437-.87.437 0-.218-.44-.218-.65-.437zm-216.787-5.9c-.437-.437-.218-1.093.219-1.53.437-.437 1.093-.218 1.53.219.218.437.218 1.093-.219 1.53-.218.218-.437.218-.655.218-.219 0-.656-.218-.875-.437zm80.856-1.53c-.437-.437-.655-1.092-.218-1.529.218-.437 1.093-.656 1.53-.219.437.219.655 1.093.218 1.53-.218.437-.655.437-.874.437-.218 0-.437 0-.656-.219zm147.511-5.681c-.44-.437-.66-1.093-.22-1.53.44-.437 1.09-.656 1.53-.219.44.437.65 1.093.22 1.53-.22.219-.66.437-.88.437-.22 0-.65 0-.65-.218zm-213.507-1.749c-.218-.655 0-1.092.656-1.529.656-.219 1.093 0 1.53.437.218.655 0 1.092-.437 1.529h-.437c-.656.219-1.093 0-1.312-.437zm50.918-.655c-.656-.219-.874-.874-.656-1.53.219-.656.874-.874 1.53-.656.656.219.874.875.656 1.312a1.202 1.202 0 01-1.093.655c0 .219-.219.219-.437.219zm-34.528-4.808c-.218-.656.219-1.093.874-1.311.656 0 1.093.218 1.311.874 0 .656-.218 1.093-.874 1.311h-.218c-.437 0-.874-.437-1.093-.874zm18.138.437c-.655 0-1.092-.655-.874-1.093 0-.655.656-1.092 1.093-.874.655 0 1.092.656.874 1.312.218.218-.219.655-1.093.655.219 0 .219 0 0 0zm188.809-7.43c-.44-.437-.65-1.093-.22-1.53.22-.437 1.1-.655 1.53-.437.44.437.66 1.093.22 1.53-.22.219-.65.437-.87.437-.22.219-.44.219-.66 0zm9.18-14.641c-.44-.219-.66-1.093-.44-1.53.22-.437 1.09-.656 1.53-.437.44.218.66 1.092.44 1.53-.22.437-.66.437-.88.437-.21.218-.43 0-.65 0zm9.18-14.86c-.44-.219-.66-.875-.44-1.53.22-.437 1.09-.656 1.53-.437.44.437.66 1.092.44 1.53-.22.218-.66.437-.88.437-.43.218-.43.218-.65 0zm9.18-14.642c-.44-.437-.66-1.093-.22-1.53.43-.437 1.09-.655 1.53-.218.43.437.65 1.092.22 1.53-.22.218-.66.437-.88.437-.22 0-.44 0-.65-.219zm10.27-13.986c-.44-.437-.44-1.092-.22-1.53.44-.437 1.09-.655 1.53-.218.43.437.65 1.093.22 1.53-.22.218-.66.437-.88.437-.22 0-.43 0-.65-.219zm11.58-12.893a1.052 1.052 0 010-1.53 1.057 1.057 0 011.53 0c.44.437.44 1.093 0 1.53-.22.218-.44.218-.66.218-.43 0-.65 0-.87-.218zm13.11-11.145c-.44-.437-.22-1.093.22-1.53.44-.437 1.09-.218 1.53.219.22.437.22 1.092-.22 1.529-.22.219-.44.219-.66.219-.21 0-.65 0-.87-.437zm15.3-8.304c-.22-.656 0-1.093.65-1.53.66-.218 1.1 0 1.31.656.22.655 0 1.092-.65 1.311h-.44c-.22.218-.65 0-.87-.437zm51.35-2.404c-.65-.219-.87-.874-.65-1.311.22-.656.87-.874 1.31-.656.65.219.87.874.65 1.53-.22.437-.65.655-1.09.655 0-.218-.22-.218-.22-.218zm-34.96-3.059c-.22-.656.22-1.093.87-1.312.66-.218 1.09.219 1.31.874 0 .656-.22 1.093-.87 1.312h-.22c-.44 0-.87-.219-1.09-.874zm17.26-1.53c0-.656.44-1.093 1.09-1.093.66 0 1.1.656 1.1 1.093 0 .655-.44 1.092-1.1 1.092-.65 0-1.09-.437-1.09-1.092zm32.78 13.767h-.44c-.21 0-.22-.218-.43-.218 0 0-.22-.219-.22-.437v-.437c0-.219.22-.656.22-.875.21-.218.87-.437 1.09-.218.22 0 .22.218.44.218.21.219.21.438.21.875v.437c0 .218-.21.218-.21.437 0 .218-.22.218-.66.218zM720.786 117.569h-.437c-.218 0-.218-.218-.437-.218 0 0-.218-.219-.218-.438v-.874c0-.218.218-.218.218-.437.219-.218.874-.437 1.093-.218.218 0 .218.218.437.218 0 0 .218.219.218.437v.874c0 .219-.218.219-.218.438-.219 0-.437.218-.656.218zM56.674 440.775c-.656 0-1.093-.437-1.093-1.093 0-.656.437-1.093 1.093-1.093.656 0 1.093.437 1.093 1.093 0 .656-.438 1.093-1.093 1.093zm16.39-3.06c-.219-.655.218-1.092.874-1.311.655-.218 1.092.219 1.311.656.219.655-.219 1.092-.656 1.311h-.218c-.656.218-1.093 0-1.311-.656zm-33.872.437c-.656-.218-.875-.874-.656-1.311.218-.655.874-.874 1.311-.655.656.218.874.874.656 1.311a1.202 1.202 0 01-1.093.655h-.218zm50.043-7.211c-.437-.437-.219-1.093.437-1.53.437-.437 1.093-.218 1.53.219.218.437.218 1.092-.437 1.529-.219 0-.438.219-.656.219-.437.218-.656 0-.874-.437zm-65.778-1.311c-.437-.437-.437-1.093-.218-1.53.437-.437 1.092-.437 1.53-.219.437.437.437 1.093.218 1.53-.218.219-.437.437-.874.437-.219 0-.437 0-.656-.218zm79.545-9.179a1.056 1.056 0 010-1.529 1.057 1.057 0 011.53 0 1.056 1.056 0 010 1.529c-.219.219-.437.219-.656.219-.437 0-.655 0-.874-.219zm12.019-12.893c-.437-.437-.655-1.093-.218-1.53.437-.437 1.093-.655 1.53-.218.437.437.655 1.093.218 1.53-.218.218-.655.437-.874.437-.219 0-.656 0-.656-.219zm10.271-14.204c-.437-.437-.655-1.093-.218-1.53.437-.437 1.092-.656 1.529-.219.438.219.656 1.093.219 1.53-.219.437-.656.437-.874.437-.437 0-.656 0-.656-.218zm9.179-14.86c-.438-.219-.656-.874-.438-1.53.219-.437.875-.656 1.53-.437.437.218.656.874.437 1.53-.218.437-.655.437-.874.437-.218.218-.437.218-.655 0zm9.178-15.079c-.437-.218-.656-1.093-.437-1.53.218-.437 1.092-.655 1.529-.437.437.219.656 1.093.438 1.53-.219.219-.656.437-.875.437-.437.219-.655.219-.655 0zm229.675-6.774c-.656 0-1.093-.437-1.093-1.093 0-.656.437-1.093 1.093-1.093.655 0 1.092.437 1.092 1.093 0 .437-.437 1.093-1.092 1.093zm-17.701-1.093c-.656 0-1.093-.656-.874-1.311 0-.656.655-1.093 1.311-.874.655 0 1.092.655.874 1.311 0 .437-.656.874-1.311.874.218 0 .218 0 0 0zm33.872-2.622c-.219-.656.218-1.093.655-1.312.656-.218 1.093.219 1.312.656.218.656-.219 1.093-.656 1.311h-.218c-.438 0-.875-.218-1.093-.655zm-50.918-1.53c-.655-.219-.874-.874-.655-1.311.218-.656.655-.874 1.311-.656.656.219.874.874.656 1.311-.219.437-.656.874-1.093.874l-.219-.218zm-185.531-2.622c-.437-.437-.656-1.093-.219-1.53.437-.437 1.093-.656 1.53-.219.437.437.655 1.093.218 1.53-.218.219-.655.437-.874.437-.218 0-.437 0-.655-.218zm168.923-3.278c-.655-.219-.874-.874-.655-1.53.218-.656.874-.874 1.529-.656.656.219.874.874.656 1.53a1.203 1.203 0 01-1.093.656h-.437zm83.041-.437c-.437-.437-.218-1.093.219-1.53.437-.437 1.093-.219 1.53.218.437.437.218 1.093-.219 1.53-.218.219-.437.219-.655.219-.219 0-.656-.219-.875-.437zm-98.994-7.212c-.437-.218-.655-.874-.437-1.53.219-.655.875-.655 1.53-.437.656.219.656.874.437 1.53-.218.437-.655.656-.874.656-.218-.219-.437-.219-.656-.219zm-142.044-2.841c-.437-.437-.437-1.092-.218-1.529.437-.438 1.092-.438 1.529-.219a1.057 1.057 0 010 1.53c-.218.218-.437.437-.874.437 0 0-.218 0-.437-.219zm253.276-2.622c-.437-.437-.655-1.093-.218-1.53.218-.437 1.092-.655 1.529-.218.437.218.656 1.092.219 1.529-.219.437-.656.437-.874.437-.437 0-.656 0-.656-.218zm-126.529-3.06c-.437-.218-.655-.874-.437-1.529.219-.656.874-.656 1.53-.437.656.218.656.874.437 1.529-.218.437-.655.656-.874.656-.437 0-.656 0-.656-.219zM176.21 322.55c-.437-.437-.219-1.093.218-1.53.437-.437 1.093-.218 1.53.219.437.437.219 1.092-.219 1.53-.218.218-.437.218-.655.218-.219 0-.656 0-.874-.437zm98.775-1.093c-.437-.218-.874-.874-.437-1.529.219-.656.874-.874 1.53-.437.437.218.874.874.437 1.529a1.203 1.203 0 01-1.093.656c0-.219-.218-.219-.437-.219zm149.693-4.807c-.655-.219-.874-.874-.655-1.311.218-.656.874-.875 1.311-.656.655.218.874.874.655 1.311a1.2 1.2 0 01-1.092.656c0 .218 0 0-.219 0zm-165.427-2.404c-.655-.219-.874-.874-.656-1.53.219-.655.875-.874 1.312-.655.655.218.874.874.655 1.529a1.2 1.2 0 01-1.092.656h-.219zm-68.4-1.53c-.218-.437 0-1.092.437-1.53.656-.218 1.311 0 1.53.438.219.655 0 1.092-.437 1.529-.219 0-.219.219-.437.219-.656 0-1.093-.219-1.093-.656zm51.792-3.933c-.656-.219-.874-.656-.874-1.312.218-.655.655-.874 1.311-.874.655.219.874.656.874 1.312-.219.437-.656.874-1.093.874h-.218zm-35.402-1.967c-.219-.656.219-1.093.874-1.311.656-.219 1.093.218 1.311.874 0 .655-.218 1.092-.874 1.311h-.218c-.656 0-1.093-.437-1.093-.874zm18.356-.656c-.655 0-1.092-.655-1.092-1.092 0-.656.655-1.093 1.092-1.093.656 0 1.093.437 1.093 1.093 0 .655-.437 1.092-1.093 1.092zm203.015-6.556c-.656 0-1.093-.655-.874-1.311 0-.655.655-1.092 1.311-.874.655 0 1.092.656.874 1.311 0 .656-.656.874-1.311.874.218 0 0 0 0 0zm2.185-17.263c-.656 0-1.093-.656-.874-1.093 0-.656.655-1.093 1.093-1.093.655 0 1.092.656 1.092 1.093-.218.655-.655 1.093-1.311 1.093zm1.53-17.483c-.656 0-1.093-.655-1.093-1.092 0-.656.656-1.093 1.311-.875.656 0 1.093.656.874 1.093 0 .437-.437.874-1.092.874.218 0 0 0 0 0zm2.622-17.482c-.656-.219-1.093-.656-.874-1.311.218-.656.656-.875 1.311-.875.656.219 1.093.656.874 1.312-.218.655-.655 1.092-1.311.874 0 .218 0 0 0 0zm4.808-16.827c-.656-.219-.874-.874-.656-1.53.219-.655.874-.874 1.311-.655.656.218.874.874.656 1.529a1.203 1.203 0 01-1.093.656c0 .219 0 .219-.218 0zm8.522-15.079c-.437-.437-.655-1.092-.218-1.529.437-.437 1.093-.656 1.53-.219.437.437.655 1.093.218 1.53-.218.218-.655.437-.874.437-.219 0-.437 0-.656-.219zm199.955-1.748c-.655 0-1.092-.655-1.092-1.092 0-.656.655-1.093 1.092-1.093.656 0 1.093.655 1.093 1.093 0 .655-.437 1.092-1.093 1.092zm16.39-1.311c0-.656.437-1.093 1.093-1.093.655 0 1.092.437 1.092 1.093 0 .656-.437 1.093-1.092 1.093-.437 0-1.093-.437-1.093-1.093zm-33.872-.656c-.656 0-1.093-.655-.874-1.311 0-.655.655-1.092 1.311-.874.655 0 1.093.656.874 1.311-.219.437-.656.874-1.311.874zm51.354-1.748c-.218-.655.219-1.092.874-1.311.656-.219 1.093.219 1.312.874.218.656-.219 1.093-.874 1.311h-.219c-.656 0-1.093-.437-1.093-.874zm-68.618-1.748c-.656-.219-.874-.656-.874-1.311.218-.656.655-.874 1.311-.874.656.218.874.655.874 1.311-.218.437-.655.874-1.092.874h-.219zm85.008-3.934c-.219-.655 0-1.092.437-1.529.437-.219 1.093 0 1.53.437.218.655 0 1.092-.437 1.529h-.437c-.437 0-.874-.218-1.093-.437zm-102.053-.655c-.656-.219-.875-.874-.875-1.311.219-.656.875-.874 1.312-.656.655.219.874.656.655 1.311-.218.437-.655.874-1.092.874.218-.218 0-.218 0-.218zm-135.707-.437c-.437-.437-.219-1.093.218-1.53.437-.437 1.093-.218 1.53.219.437.437.218 1.092-.219 1.529-.218.219-.437.219-.655.219-.219 0-.656-.219-.874-.437zm118.88-4.371c-.656-.218-.874-.655-.656-1.311.219-.656.874-.874 1.311-.656.656.219.875.656.656 1.312-.218.437-.656.874-1.093.874 0-.219-.218-.219-.218-.219zm133.74-3.933c-.437-.437-.437-1.093.219-1.53a1.056 1.056 0 011.529 0 1.057 1.057 0 010 1.53c-.218.218-.437.218-.655.218-.656.219-.874 0-1.093-.218zm-237.323-.437c-.219-.656 0-1.093.655-1.53.656-.219 1.093 0 1.53.655.219.656 0 1.093-.656 1.312h-.437c-.655.218-1.092 0-1.092-.437zm86.756-.219c-.656-.219-.874-.656-.874-1.311.218-.656.656-.874 1.311-.874.656.218.874.655.874 1.311-.218.437-.655.874-1.092.874h-.219zm-17.045-3.715c-.656 0-1.093-.656-.874-1.311 0-.656.655-.874 1.311-.874.655 0 1.092.655.874 1.311-.219.437-.656.874-1.311.874zm-53.103-1.311c-.219-.656.218-1.093.874-1.311.656-.219 1.093.218 1.311.874.219.655-.218 1.092-.874 1.311h-.218c-.656-.219-1.093-.437-1.093-.874zm35.839-1.311c-.656 0-1.093-.656-1.093-1.093 0-.656.656-1.093 1.093-.874.655 0 1.093.655 1.093 1.093 0 .437-.438.874-1.093.874zm-18.575-1.312c0-.655.437-1.092 1.092-1.092.656 0 1.093.437 1.093 1.092 0 .656-.437 1.093-1.093 1.093-.437 0-1.092-.437-1.092-1.093zm214.815-4.807c-.437-.219-.656-1.093-.437-1.53.218-.437.874-.655 1.529-.437.437.219.656 1.093.437 1.53-.218.218-.655.437-.874.437h-.655zm7.211-15.953c-.656-.218-.874-.655-.655-1.311.218-.656.874-.874 1.311-.656.655.219.874.656.655 1.312-.218.437-.655.874-1.092.874 0-.219 0-.219-.219-.219zm1.53-18.356c0-.656.437-1.093 1.092-1.093.656 0 1.093.437 1.093 1.093 0 .655-.437 1.092-1.093 1.092-.655 0-1.092-.437-1.092-1.092zm-3.497-16.609c-.218-.655 0-1.092.656-1.529.656-.219 1.093 0 1.53.655.218.656 0 1.093-.656 1.53h-.437c-.437 0-.874-.219-1.093-.656zM14.06 415.644c-.218 0-.655-.219-.873-.219 0-.218-.219-.219-.219-.437v-.874c0-.219.219-.219.219-.437 0-.219.218-.219.437-.219h.874c.218 0 .218.219.437.219 0 0 .218.218.218.437v.874c0 .218-.218.219-.218.437-.219 0-.219.219-.437.219-.219-.219-.437 0-.437 0zm26.661-52.229c-2.404-38.243 15.734-77.796 46.328-100.742 30.595-22.946 73.645-29.502 109.484-16.608 8.304 3.059 16.171 6.993 24.038 10.708 8.523 4.152 17.483 8.522 26.661 11.582 20.542 6.774 39.772 4.37 51.354-6.338 12.894-11.8 14.86-30.157 16.609-48.295.655-6.337 1.311-12.893 2.404-19.012 7.211-40.209 40.428-73.863 80.637-81.512l.437 2.186c-39.335 7.648-71.678 40.428-78.889 79.763-1.093 6.119-1.748 12.456-2.404 18.794-1.748 18.356-3.715 37.368-17.264 49.606-12.238 11.145-32.342 13.767-53.54 6.774-9.396-3.059-18.356-7.43-27.097-11.8-7.649-3.715-15.516-7.649-23.82-10.708-35.402-12.675-77.578-6.337-107.517 16.39-29.938 22.508-47.858 61.406-45.454 98.775l-1.967.437z"/><path d="M619.17 800.912c-16.827-31.25 1.748-71.241 29.72-89.16 24.475-15.735 57.036-20.761 99.212-15.516 12.02 1.53 24.039 3.715 35.839 5.682 21.198 3.715 43.051 7.648 64.904 7.648h1.092c38.68 0 71.023-13.33 88.942-36.713 9.615-12.456 15.079-27.753 20.542-42.832 7.211-19.667 14.641-40.209 31.25-53.321 29.499-23.82 72.549-12.893 100.309 3.715 13.98 8.304 27.09 18.794 39.77 28.628 14.64 11.582 29.5 23.382 46.11 32.342 29.5 15.734 72.33 20.76 96.59-5.245l1.53 1.53c-25.13 26.879-69.06 21.853-99.21 5.682-16.83-8.96-31.91-20.979-46.55-32.561-12.46-10.053-25.57-20.324-39.56-28.628-27.09-16.171-69.05-26.879-97.678-3.715-15.953 12.894-22.946 32.124-30.376 52.448-5.463 15.078-11.145 30.594-20.979 43.268-18.356 24.039-51.791 37.806-91.782 37.588-21.853-.219-43.925-3.934-65.122-7.868-11.801-1.966-23.82-4.152-35.839-5.681-41.739-5.245-73.645-.219-97.902 15.078-27.097 17.264-45.235 56.162-29.064 86.32l-1.748 1.311zM408.231 253.117l-40.948 40.949 1.545 1.545 40.948-40.949-1.545-1.545zm115.263 394.957l-95.186 95.2 1.546 1.545 95.186-95.199-1.546-1.546zm563.296-244.753L965.628 524.467l1.545 1.545 121.167-121.145-1.55-1.546zm-289.3-203.366c-.218 0-.656-.219-.874-.437 0 0-.219-.219-.219-.437v-.875c0-.218.219-.218.219-.437a1.057 1.057 0 011.53 0s.218.219.218.437v.875c0 .218-.218.218-.218.437-.219 0-.219.218-.437.218 0 .219-.219.219-.219.219zm327.58-1.093c0-.656.43-1.093 1.09-1.093.65 0 1.09.437 1.09 1.093 0 .656-.44 1.093-1.09 1.093-.66 0-1.09-.437-1.09-1.093zm-17.27 0c0-.656.44-1.093 1.1-1.093.65 0 1.09.437 1.09 1.093 0 .656-.44 1.093-1.09 1.093-.66 0-1.1-.437-1.1-1.093zm-17.48 0c0-.656.44-1.093 1.09-1.093.66 0 1.1.437 1.1 1.093 0 .656-.44 1.093-1.1 1.093-.43 0-1.09-.437-1.09-1.093zm-17.26 0c0-.656.43-1.093 1.09-1.093.65 0 1.09.437 1.09 1.093 0 .656-.44 1.093-1.09 1.093-.44 0-1.09-.437-1.09-1.093zm-17.27 0c0-.656.44-1.093 1.09-1.093.66 0 1.1.437 1.1 1.093 0 .656-.44 1.093-1.1 1.093-.65 0-1.09-.437-1.09-1.093zm-17.26 0c0-.656.44-1.093 1.09-1.093.66 0 1.09.437 1.09 1.093 0 .656-.43 1.093-1.09 1.093-.65 0-1.09-.437-1.09-1.093zm-17.27 0c0-.656.44-1.093 1.1-1.093.65 0 1.09.437 1.09 1.093 0 .656-.44 1.093-1.09 1.093-.66 0-1.1-.437-1.1-1.093zm-17.26 0c0-.656.44-1.093 1.09-1.093.66 0 1.1.437 1.1 1.093 0 .656-.44 1.093-1.1 1.093-.65 0-1.09-.437-1.09-1.093zm-17.482 0c0-.656.437-1.093 1.093-1.093.656 0 1.093.437 1.093 1.093 0 .656-.437 1.093-1.093 1.093-.437 0-1.093-.437-1.093-1.093zm-17.263 0c0-.656.437-1.093 1.092-1.093.656 0 1.093.437 1.093 1.093 0 .656-.437 1.093-1.093 1.093-.437 0-1.092-.437-1.092-1.093zm-17.264 0c0-.656.437-1.093 1.092-1.093.656 0 1.093.437 1.093 1.093 0 .656-.437 1.093-1.093 1.093-.655 0-1.092-.437-1.092-1.093zm-17.264 0c0-.656.437-1.093 1.092-1.093.656 0 1.093.437 1.093 1.093 0 .656-.437 1.093-1.093 1.093-.655 0-1.092-.437-1.092-1.093zm-17.264 0c0-.656.437-1.093 1.093-1.093.655 0 1.092.437 1.092 1.093 0 .656-.437 1.093-1.092 1.093-.656 0-1.093-.437-1.093-1.093zm-17.264 0c0-.656.437-1.093 1.093-1.093.655 0 1.092.437 1.092 1.093 0 .656-.437 1.093-1.092 1.093-.656 0-1.093-.437-1.093-1.093zm-17.264 0c0-.656.437-1.093 1.093-1.093.655 0 1.093.437 1.093 1.093 0 .656-.438 1.093-1.093 1.093-.656 0-1.093-.437-1.093-1.093zm-17.482 0c0-.656.437-1.093 1.092-1.093.656 0 1.093.437 1.093 1.093 0 .656-.437 1.093-1.093 1.093-.437 0-1.092-.437-1.092-1.093zm-17.264 0c0-.656.437-1.093 1.093-1.093.655 0 1.092.437 1.092 1.093 0 .656-.437 1.093-1.092 1.093-.656 0-1.093-.437-1.093-1.093zm-17.264 0c0-.656.437-1.093 1.093-1.093.655 0 1.092.437 1.092 1.093 0 .656-.437 1.093-1.092 1.093-.656 0-1.093-.437-1.093-1.093zm-17.264 0c0-.656.437-1.093 1.093-1.093.656 0 1.093.437 1.093 1.093 0 .656-.437 1.093-1.093 1.093-.656 0-1.093-.437-1.093-1.093zm329.759 1.093h-.43c-.22 0-.22-.219-.44-.219-.22-.218-.22-.437-.22-.655v-.437c0-.219.22-.219.22-.437.22 0 .22-.219.44-.219.43-.219.87 0 1.09.219 0 0 .22.218.22.437v.437c0 .218 0 .655-.22.655-.22.219-.44.219-.66.219zM2.041 726.393c-.218 0-.655 0-.655-.437-.219-.218-.437-.437-.437-.655 0-.219.218-.656.437-.875 0 0 .218-.218.437-.218.437-.219.874 0 1.311.218 0 .219.219.219.219.438v.437c0 .218 0 .655-.219.655-.655.437-.874.437-1.093.437zm327.577-1.092c0-.656.437-1.093 1.092-1.093.656 0 1.093.437 1.093 1.093 0 .655-.437 1.092-1.093 1.092-.655 0-1.092-.437-1.092-1.092zm-17.264 0c0-.656.437-1.093 1.092-1.093.656 0 1.093.437 1.093 1.093 0 .655-.437 1.092-1.093 1.092-.655 0-1.092-.437-1.092-1.092zm-17.483 0c0-.656.438-1.093 1.093-1.093.656 0 1.093.437 1.093 1.093 0 .655-.437 1.092-1.093 1.092-.437 0-1.093-.437-1.093-1.092zm-17.263 0c0-.656.437-1.093 1.092-1.093.656 0 1.093.437 1.093 1.093 0 .655-.437 1.092-1.093 1.092-.437 0-1.092-.437-1.092-1.092zm-17.264 0c0-.656.437-1.093 1.092-1.093.656 0 1.093.437 1.093 1.093 0 .655-.437 1.092-1.093 1.092-.655 0-1.092-.437-1.092-1.092zm-17.264 0c0-.656.437-1.093 1.093-1.093.655 0 1.092.437 1.092 1.093 0 .655-.437 1.092-1.092 1.092-.656 0-1.093-.437-1.093-1.092zm-17.264 0c0-.656.437-1.093 1.093-1.093.655 0 1.092.437 1.092 1.093 0 .655-.437 1.092-1.092 1.092-.656 0-1.093-.437-1.093-1.092zm-17.264 0c0-.656.437-1.093 1.093-1.093.655 0 1.092.437 1.092 1.093 0 .655-.437 1.092-1.092 1.092-.656 0-1.093-.437-1.093-1.092zm-17.482 0c0-.656.437-1.093 1.092-1.093.656 0 1.093.437 1.093 1.093 0 .655-.437 1.092-1.093 1.092-.437 0-1.092-.437-1.092-1.092zm-17.264 0c0-.656.437-1.093 1.093-1.093.655 0 1.092.437 1.092 1.093 0 .655-.437 1.092-1.092 1.092-.438 0-1.093-.437-1.093-1.092zm-17.264 0c0-.656.437-1.093 1.093-1.093.655 0 1.092.437 1.092 1.093 0 .655-.437 1.092-1.092 1.092-.656 0-1.093-.437-1.093-1.092zm-17.264 0c0-.656.437-1.093 1.093-1.093.655 0 1.092.437 1.092 1.093 0 .655-.437 1.092-1.092 1.092-.656 0-1.093-.437-1.093-1.092zm-17.264 0c0-.656.437-1.093 1.093-1.093.656 0 1.093.437 1.093 1.093 0 .655-.437 1.092-1.093 1.092-.656 0-1.093-.437-1.093-1.092zm-17.264 0c0-.656.438-1.093 1.093-1.093.656 0 1.093.437 1.093 1.093 0 .655-.437 1.092-1.093 1.092-.655 0-1.093-.437-1.093-1.092zm-17.263 0c0-.656.437-1.093 1.092-1.093.656 0 1.093.437 1.093 1.093 0 .655-.437 1.092-1.093 1.092-.655 0-1.092-.437-1.092-1.092zm-17.483 0c0-.656.437-1.093 1.093-1.093.656 0 1.093.437 1.093 1.093 0 .655-.438 1.092-1.093 1.092-.437 0-1.093-.437-1.093-1.092zm-17.264 0c0-.656.437-1.093 1.093-1.093.656 0 1.093.437 1.093 1.093 0 .655-.437 1.092-1.093 1.092-.656 0-1.093-.437-1.093-1.092zm-17.264 0c0-.656.438-1.093 1.093-1.093.656 0 1.093.437 1.093 1.093 0 .655-.437 1.092-1.093 1.092-.655 0-1.093-.437-1.093-1.092zm-17.263 0c0-.656.437-1.093 1.092-1.093.656 0 1.093.437 1.093 1.093 0 .655-.437 1.092-1.093 1.092-.655 0-1.092-.437-1.092-1.092zm329.761 1.092h-.437c-.218 0-.218-.218-.437-.218-.218-.219-.218-.437-.218-.656 0-.218.218-.655.218-.874a1.057 1.057 0 011.53 0c.218.219.437.437.437.874 0 .219-.219.656-.437.656-.219.218-.437.218-.656.218zM217.512 182.035c-20.76 0-37.587-16.826-37.587-37.587 0-20.76 17.045-37.368 37.587-37.368s37.587 16.826 37.587 37.587c0 20.76-16.827 37.368-37.587 37.368zm0-64.029c-14.642 0-26.661 12.019-26.661 26.661 0 14.641 12.019 26.66 26.661 26.66 14.641 0 26.661-12.019 26.661-26.66 0-14.86-11.801-26.661-26.661-26.661zm818.828 685.747c-20.76 0-37.584-16.827-37.584-37.587 0-20.761 16.824-37.587 37.584-37.587s37.59 16.826 37.59 37.587c0 20.76-16.83 37.587-37.59 37.587zm0-64.248c-14.64 0-26.66 12.019-26.66 26.661 0 14.641 12.02 26.66 26.66 26.66s26.66-12.019 26.66-26.66c0-14.642-12.02-26.661-26.66-26.661z"/></g></svg>78 280.155 431.016 280.155C431.671 280.155 432.108 280.811 432.108 281.248C431.89 281.903 431.453 282.341 430.797 282.341ZM432.327 264.858C431.671 264.858 431.234 264.203 431.234 263.766C431.234 263.11 431.89 262.673 432.545 262.891C433.201 262.891 433.638 263.547 433.419 263.984C433.419 264.421 432.982 264.858 432.327 264.858C432.545 264.858 432.327 264.858 432.327 264.858ZM434.949 247.376C434.293 247.157 433.856 246.72 434.075 246.065C434.293 245.409 434.731 245.19 435.386 245.19C436.042 245.409 436.479 245.846 436.26 246.502C436.042 247.157 435.605 247.594 434.949 247.376C434.949 247.594 434.949 247.376 434.949 247.376ZM439.757 230.549C439.101 230.33 438.883 229.675 439.101 229.019C439.32 228.364 439.975 228.145 440.412 228.364C441.068 228.582 441.286 229.238 441.068 229.893C440.849 230.33 440.412 230.549 439.975 230.549C439.975 230.768 439.975 230.768 439.757 230.549ZM448.279 215.47C447.842 215.033 447.624 214.378 448.061 213.941C448.498 213.504 449.154 213.285 449.591 213.722C450.028 214.159 450.246 214.815 449.809 215.252C449.591 215.47 449.154 215.689 448.935 215.689C448.716 215.689 448.498 215.689 448.279 215.47ZM648.234 213.722C647.579 213.722 647.142 213.067 647.142 212.63C647.142 211.974 647.797 211.537 648.234 211.537C648.89 211.537 649.327 212.192 649.327 212.63C649.327 213.285 648.89 213.722 648.234 213.722ZM664.624 212.411C664.624 211.755 665.061 211.318 665.717 211.318C666.372 211.318 666.809 211.755 666.809 212.411C666.809 213.067 666.372 213.504 665.717 213.504C665.28 213.504 664.624 213.067 664.624 212.411ZM630.752 211.755C630.096 211.755 629.659 211.1 629.878 210.444C629.878 209.789 630.533 209.352 631.189 209.57C631.844 209.57 632.282 210.226 632.063 210.881C631.844 211.318 631.407 211.755 630.752 211.755ZM682.106 210.007C681.888 209.352 682.325 208.915 682.98 208.696C683.636 208.477 684.073 208.915 684.292 209.57C684.51 210.226 684.073 210.663 683.418 210.881H683.199C682.543 210.881 682.106 210.444 682.106 210.007ZM613.488 208.259C612.832 208.04 612.614 207.603 612.614 206.948C612.832 206.292 613.269 206.074 613.925 206.074C614.581 206.292 614.799 206.729 614.799 207.385C614.581 207.822 614.144 208.259 613.707 208.259H613.488ZM698.496 204.325C698.277 203.67 698.496 203.233 698.933 202.796C699.37 202.577 700.026 202.796 700.463 203.233C700.681 203.888 700.463 204.325 700.026 204.762C699.807 204.762 699.807 204.762 699.589 204.762C699.152 204.762 698.715 204.544 698.496 204.325ZM596.443 203.67C595.787 203.451 595.568 202.796 595.568 202.359C595.787 201.703 596.443 201.485 596.88 201.703C597.535 201.922 597.754 202.359 597.535 203.014C597.317 203.451 596.88 203.888 596.443 203.888C596.661 203.67 596.443 203.67 596.443 203.67ZM460.736 203.233C460.299 202.796 460.517 202.14 460.954 201.703C461.391 201.266 462.047 201.485 462.484 201.922C462.921 202.359 462.702 203.014 462.265 203.451C462.047 203.67 461.828 203.67 461.61 203.67C461.391 203.67 460.954 203.451 460.736 203.233ZM579.616 198.862C578.96 198.644 578.742 198.207 578.96 197.551C579.179 196.895 579.834 196.677 580.271 196.895C580.927 197.114 581.146 197.551 580.927 198.207C580.709 198.644 580.271 199.081 579.834 199.081C579.834 198.862 579.616 198.862 579.616 198.862ZM713.356 194.929C712.919 194.492 712.919 193.836 713.575 193.399C714.012 192.962 714.667 192.962 715.104 193.399C715.541 193.836 715.541 194.492 715.104 194.929C714.886 195.147 714.667 195.147 714.449 195.147C713.793 195.366 713.575 195.147 713.356 194.929ZM476.033 194.492C475.814 193.836 476.033 193.399 476.688 192.962C477.344 192.743 477.781 192.962 478.218 193.617C478.437 194.273 478.218 194.71 477.562 194.929C477.344 194.929 477.344 194.929 477.125 194.929C476.47 195.147 476.033 194.929 476.033 194.492ZM562.789 194.273C562.133 194.054 561.915 193.617 561.915 192.962C562.133 192.306 562.571 192.088 563.226 192.088C563.882 192.306 564.1 192.743 564.1 193.399C563.882 193.836 563.445 194.273 563.008 194.273C562.789 194.273 562.789 194.273 562.789 194.273ZM545.744 190.558C545.088 190.558 544.651 189.902 544.87 189.247C544.87 188.591 545.525 188.373 546.181 188.373C546.836 188.373 547.273 189.028 547.055 189.684C546.836 190.121 546.399 190.558 545.744 190.558ZM492.641 189.247C492.422 188.591 492.859 188.154 493.515 187.936C494.171 187.717 494.608 188.154 494.826 188.81C495.045 189.465 494.608 189.902 493.952 190.121H493.734C493.078 189.902 492.641 189.684 492.641 189.247ZM528.48 187.936C527.824 187.936 527.387 187.28 527.387 186.843C527.387 186.187 528.043 185.75 528.48 185.969C529.135 185.969 529.573 186.624 529.573 187.062C529.573 187.499 529.135 187.936 528.48 187.936ZM509.905 186.624C509.905 185.969 510.342 185.532 510.997 185.532C511.653 185.532 512.09 185.969 512.09 186.624C512.09 187.28 511.653 187.717 510.997 187.717C510.56 187.717 509.905 187.28 509.905 186.624ZM724.72 181.817C724.283 181.598 724.064 180.724 724.283 180.287C724.501 179.85 725.157 179.632 725.812 179.85C726.249 180.069 726.468 180.943 726.249 181.38C726.031 181.598 725.594 181.817 725.375 181.817C725.157 181.817 724.938 181.817 724.72 181.817ZM731.931 165.864C731.275 165.646 731.057 165.209 731.276 164.553C731.494 163.897 732.15 163.679 732.587 163.897C733.242 164.116 733.461 164.553 733.242 165.209C733.024 165.646 732.587 166.083 732.15 166.083C732.15 165.864 732.15 165.864 731.931 165.864ZM733.461 147.508C733.461 146.852 733.898 146.415 734.553 146.415C735.209 146.415 735.646 146.852 735.646 147.508C735.646 148.163 735.209 148.6 734.553 148.6C733.898 148.6 733.461 148.163 733.461 147.508ZM729.964 130.899C729.746 130.244 729.964 129.807 730.62 129.37C731.276 129.151 731.713 129.37 732.15 130.025C732.368 130.681 732.15 131.118 731.494 131.555C731.276 131.555 731.275 131.555 731.057 131.555C730.62 131.555 730.183 131.336 729.964 130.899Z" fill="white" fill-opacity="0.3"/>
<path d="M14.0606 415.644C13.8421 415.644 13.405 415.425 13.1865 415.425C13.1865 415.207 12.968 415.206 12.968 414.988C12.968 414.769 12.968 414.769 12.968 414.551C12.968 414.332 12.968 414.332 12.968 414.114C12.968 413.895 13.1865 413.895 13.1865 413.677C13.1865 413.458 13.405 413.458 13.6235 413.458C13.8421 413.458 14.2791 413.458 14.4977 413.458C14.7162 413.458 14.7162 413.677 14.9347 413.677C14.9347 413.677 15.1533 413.895 15.1533 414.114C15.1533 414.332 15.1533 414.332 15.1533 414.551C15.1533 414.769 15.1533 414.769 15.1533 414.988C15.1533 415.206 14.9347 415.207 14.9347 415.425C14.7162 415.425 14.7162 415.644 14.4977 415.644C14.2791 415.425 14.0606 415.644 14.0606 415.644Z" fill="white" fill-opacity="0.3"/>
<path d="M40.7212 363.415C38.3174 325.172 56.4553 285.619 87.0495 262.673C117.644 239.727 160.694 233.171 196.533 246.065C204.837 249.124 212.704 253.058 220.571 256.773C229.094 260.925 238.054 265.295 247.232 268.355C267.774 275.129 287.004 272.725 298.586 262.017C311.48 250.217 313.446 231.86 315.195 213.722C315.85 207.385 316.506 200.829 317.599 194.71C324.81 154.501 358.027 120.847 398.236 113.198L398.673 115.384C359.338 123.032 326.995 155.812 319.784 195.147C318.691 201.266 318.036 207.603 317.38 213.941C315.632 232.297 313.665 251.309 300.116 263.547C287.878 274.692 267.774 277.314 246.576 270.321C237.18 267.262 228.22 262.891 219.479 258.521C211.83 254.806 203.963 250.872 195.659 247.813C160.257 235.138 118.081 241.476 88.1422 264.203C58.2036 286.711 40.2841 325.609 42.688 362.978L40.7212 363.415Z" fill="white" fill-opacity="0.3"/>
<path d="M619.17 800.912C602.343 769.662 620.918 729.671 648.89 711.752C673.365 696.017 705.926 690.991 748.102 696.236C760.122 697.766 772.141 699.951 783.941 701.918C805.139 705.633 826.992 709.566 848.845 709.566C849.282 709.566 849.719 709.566 849.937 709.566C888.617 709.566 920.96 696.236 938.879 672.853C948.494 660.397 953.958 645.1 959.421 630.021C966.632 610.354 974.062 589.812 990.671 576.7C1020.17 552.88 1063.22 563.807 1090.98 580.415C1104.96 588.719 1118.07 599.209 1130.75 609.043C1145.39 620.625 1160.25 632.425 1176.86 641.385C1206.36 657.119 1249.19 662.145 1273.45 636.14L1274.98 637.67C1249.85 664.549 1205.92 659.523 1175.77 643.352C1158.94 634.392 1143.86 622.373 1129.22 610.791C1116.76 600.738 1103.65 590.467 1089.66 582.163C1062.57 565.992 1020.61 555.284 991.982 578.448C976.029 591.342 969.036 610.572 961.606 630.896C956.143 645.974 950.461 661.49 940.627 674.164C922.271 698.203 888.836 711.97 848.845 711.752C826.992 711.533 804.92 707.818 783.723 703.884C771.922 701.918 759.903 699.732 747.884 698.203C706.145 692.958 674.239 697.984 649.982 713.281C622.885 730.545 604.747 769.443 620.918 799.601L619.17 800.912Z" fill="white" fill-opacity="0.3"/>
<path d="M408.231 253.117L367.283 294.066L368.828 295.611L409.776 254.662L408.231 253.117Z" fill="white" fill-opacity="0.3"/>
<path d="M523.494 648.074L428.308 743.274L429.854 744.819L525.04 649.62L523.494 648.074Z" fill="white" fill-opacity="0.3"/>
<path d="M1086.79 403.321L965.628 524.467L967.173 526.012L1088.34 404.867L1086.79 403.321Z" fill="white" fill-opacity="0.3"/>
<path d="M797.49 199.955C797.272 199.955 796.834 199.736 796.616 199.518C796.616 199.518 796.397 199.299 796.397 199.081C796.397 198.862 796.397 198.862 796.397 198.644C796.397 198.425 796.397 198.425 796.397 198.206C796.397 197.988 796.616 197.988 796.616 197.769C797.053 197.332 797.709 197.332 798.146 197.769C798.146 197.769 798.364 197.988 798.364 198.206C798.364 198.425 798.364 198.425 798.364 198.644C798.364 198.862 798.364 198.862 798.364 199.081C798.364 199.299 798.146 199.299 798.146 199.518C797.927 199.518 797.927 199.736 797.709 199.736C797.709 199.955 797.49 199.955 797.49 199.955Z" fill="white" fill-opacity="0.3"/>
<path d="M1125.07 198.862C1125.07 198.206 1125.5 197.769 1126.16 197.769C1126.81 197.769 1127.25 198.206 1127.25 198.862C1127.25 199.518 1126.81 199.955 1126.16 199.955C1125.5 199.955 1125.07 199.518 1125.07 198.862ZM1107.8 198.862C1107.8 198.206 1108.24 197.769 1108.9 197.769C1109.55 197.769 1109.99 198.206 1109.99 198.862C1109.99 199.518 1109.55 199.955 1108.9 199.955C1108.24 199.955 1107.8 199.518 1107.8 198.862ZM1090.32 198.862C1090.32 198.206 1090.76 197.769 1091.41 197.769C1092.07 197.769 1092.51 198.206 1092.51 198.862C1092.51 199.518 1092.07 199.955 1091.41 199.955C1090.98 199.955 1090.32 199.518 1090.32 198.862ZM1073.06 198.862C1073.06 198.206 1073.49 197.769 1074.15 197.769C1074.8 197.769 1075.24 198.206 1075.24 198.862C1075.24 199.518 1074.8 199.955 1074.15 199.955C1073.71 199.955 1073.06 199.518 1073.06 198.862ZM1055.79 198.862C1055.79 198.206 1056.23 197.769 1056.88 197.769C1057.54 197.769 1057.98 198.206 1057.98 198.862C1057.98 199.518 1057.54 199.955 1056.88 199.955C1056.23 199.955 1055.79 199.518 1055.79 198.862ZM1038.53 198.862C1038.53 198.206 1038.97 197.769 1039.62 197.769C1040.28 197.769 1040.71 198.206 1040.71 198.862C1040.71 199.518 1040.28 199.955 1039.62 199.955C1038.97 199.955 1038.53 199.518 1038.53 198.862ZM1021.26 198.862C1021.26 198.206 1021.7 197.769 1022.36 197.769C1023.01 197.769 1023.45 198.206 1023.45 198.862C1023.45 199.518 1023.01 199.955 1022.36 199.955C1021.7 199.955 1021.26 199.518 1021.26 198.862ZM1004 198.862C1004 198.206 1004.44 197.769 1005.09 197.769C1005.75 197.769 1006.19 198.206 1006.19 198.862C1006.19 199.518 1005.75 199.955 1005.09 199.955C1004.44 199.955 1004 199.518 1004 198.862ZM986.518 198.862C986.518 198.206 986.955 197.769 987.611 197.769C988.267 197.769 988.704 198.206 988.704 198.862C988.704 199.518 988.267 199.955 987.611 199.955C987.174 199.955 986.518 199.518 986.518 198.862ZM969.255 198.862C969.255 198.206 969.692 197.769 970.347 197.769C971.003 197.769 971.44 198.206 971.44 198.862C971.44 199.518 971.003 199.955 970.347 199.955C969.91 199.955 969.255 199.518 969.255 198.862ZM951.991 198.862C951.991 198.206 952.428 197.769 953.083 197.769C953.739 197.769 954.176 198.206 954.176 198.862C954.176 199.518 953.739 199.955 953.083 199.955C952.428 199.955 951.991 199.518 951.991 198.862ZM934.727 198.862C934.727 198.206 935.164 197.769 935.819 197.769C936.475 197.769 936.912 198.206 936.912 198.862C936.912 199.518 936.475 199.955 935.819 199.955C935.164 199.955 934.727 199.518 934.727 198.862ZM917.463 198.862C917.463 198.206 917.9 197.769 918.556 197.769C919.211 197.769 919.648 198.206 919.648 198.862C919.648 199.518 919.211 199.955 918.556 199.955C917.9 199.955 917.463 199.518 917.463 198.862ZM900.199 198.862C900.199 198.206 900.636 197.769 901.292 197.769C901.947 197.769 902.384 198.206 902.384 198.862C902.384 199.518 901.947 199.955 901.292 199.955C900.636 199.955 900.199 199.518 900.199 198.862ZM882.935 198.862C882.935 198.206 883.372 197.769 884.028 197.769C884.683 197.769 885.121 198.206 885.121 198.862C885.121 199.518 884.683 199.955 884.028 199.955C883.372 199.955 882.935 199.518 882.935 198.862ZM865.453 198.862C865.453 198.206 865.89 197.769 866.545 197.769C867.201 197.769 867.638 198.206 867.638 198.862C867.638 199.518 867.201 199.955 866.545 199.955C866.108 199.955 865.453 199.518 865.453 198.862ZM848.189 198.862C848.189 198.206 848.626 197.769 849.282 197.769C849.937 197.769 850.374 198.206 850.374 198.862C850.374 199.518 849.937 199.955 849.282 199.955C848.626 199.955 848.189 199.518 848.189 198.862ZM830.925 198.862C830.925 198.206 831.362 197.769 832.018 197.769C832.673 197.769 833.11 198.206 833.11 198.862C833.11 199.518 832.673 199.955 832.018 199.955C831.362 199.955 830.925 199.518 830.925 198.862ZM813.661 198.862C813.661 198.206 814.098 197.769 814.754 197.769C815.41 197.769 815.847 198.206 815.847 198.862C815.847 199.518 815.41 199.955 814.754 199.955C814.098 199.955 813.661 199.518 813.661 198.862Z" fill="white" fill-opacity="0.3"/>
<path d="M1143.42 199.955C1143.2 199.955 1143.2 199.955 1142.99 199.955C1142.77 199.955 1142.77 199.736 1142.55 199.736C1142.33 199.518 1142.33 199.299 1142.33 199.081C1142.33 198.862 1142.33 198.862 1142.33 198.644C1142.33 198.425 1142.55 198.425 1142.55 198.207C1142.77 198.207 1142.77 197.988 1142.99 197.988C1143.42 197.769 1143.86 197.988 1144.08 198.207C1144.08 198.207 1144.3 198.425 1144.3 198.644C1144.3 198.862 1144.3 198.862 1144.3 199.081C1144.3 199.299 1144.3 199.736 1144.08 199.736C1143.86 199.955 1143.64 199.955 1143.42 199.955Z" fill="white" fill-opacity="0.3"/>
<path d="M2.04144 726.393C1.82291 726.393 1.38585 726.393 1.38585 725.956C1.16732 725.738 0.948792 725.519 0.948792 725.301C0.948792 725.082 1.16732 724.645 1.38585 724.426C1.38585 724.426 1.60438 724.208 1.82291 724.208C2.25997 723.989 2.69703 724.208 3.13409 724.426C3.13409 724.645 3.35262 724.645 3.35262 724.864C3.35262 725.082 3.35262 725.082 3.35262 725.301C3.35262 725.519 3.35262 725.956 3.13409 725.956C2.4785 726.393 2.25997 726.393 2.04144 726.393Z" fill="white" fill-opacity="0.3"/>
<path d="M329.618 725.301C329.618 724.645 330.055 724.208 330.71 724.208C331.366 724.208 331.803 724.645 331.803 725.301C331.803 725.956 331.366 726.393 330.71 726.393C330.055 726.393 329.618 725.956 329.618 725.301ZM312.354 725.301C312.354 724.645 312.791 724.208 313.446 724.208C314.102 724.208 314.539 724.645 314.539 725.301C314.539 725.956 314.102 726.393 313.446 726.393C312.791 726.393 312.354 725.956 312.354 725.301ZM294.871 725.301C294.871 724.645 295.309 724.208 295.964 724.208C296.62 724.208 297.057 724.645 297.057 725.301C297.057 725.956 296.62 726.393 295.964 726.393C295.527 726.393 294.871 725.956 294.871 725.301ZM277.608 725.301C277.608 724.645 278.045 724.208 278.7 724.208C279.356 724.208 279.793 724.645 279.793 725.301C279.793 725.956 279.356 726.393 278.7 726.393C278.263 726.393 277.608 725.956 277.608 725.301ZM260.344 725.301C260.344 724.645 260.781 724.208 261.436 724.208C262.092 724.208 262.529 724.645 262.529 725.301C262.529 725.956 262.092 726.393 261.436 726.393C260.781 726.393 260.344 725.956 260.344 725.301ZM243.08 725.301C243.08 724.645 243.517 724.208 244.173 724.208C244.828 724.208 245.265 724.645 245.265 725.301C245.265 725.956 244.828 726.393 244.173 726.393C243.517 726.393 243.08 725.956 243.08 725.301ZM225.816 725.301C225.816 724.645 226.253 724.208 226.909 724.208C227.564 724.208 228.001 724.645 228.001 725.301C228.001 725.956 227.564 726.393 226.909 726.393C226.253 726.393 225.816 725.956 225.816 725.301ZM208.552 725.301C208.552 724.645 208.989 724.208 209.645 724.208C210.3 724.208 210.737 724.645 210.737 725.301C210.737 725.956 210.3 726.393 209.645 726.393C208.989 726.393 208.552 725.956 208.552 725.301ZM191.07 725.301C191.07 724.645 191.507 724.208 192.162 724.208C192.818 724.208 193.255 724.645 193.255 725.301C193.255 725.956 192.818 726.393 192.162 726.393C191.725 726.393 191.07 725.956 191.07 725.301ZM173.806 725.301C173.806 724.645 174.243 724.208 174.899 724.208C175.554 724.208 175.991 724.645 175.991 725.301C175.991 725.956 175.554 726.393 174.899 726.393C174.461 726.393 173.806 725.956 173.806 725.301ZM156.542 725.301C156.542 724.645 156.979 724.208 157.635 724.208C158.29 724.208 158.727 724.645 158.727 725.301C158.727 725.956 158.29 726.393 157.635 726.393C156.979 726.393 156.542 725.956 156.542 725.301ZM139.278 725.301C139.278 724.645 139.715 724.208 140.371 724.208C141.026 724.208 141.463 724.645 141.463 725.301C141.463 725.956 141.026 726.393 140.371 726.393C139.715 726.393 139.278 725.956 139.278 725.301ZM122.014 725.301C122.014 724.645 122.451 724.208 123.107 724.208C123.763 724.208 124.2 724.645 124.2 725.301C124.2 725.956 123.763 726.393 123.107 726.393C122.451 726.393 122.014 725.956 122.014 725.301ZM104.75 725.301C104.75 724.645 105.188 724.208 105.843 724.208C106.499 724.208 106.936 724.645 106.936 725.301C106.936 725.956 106.499 726.393 105.843 726.393C105.188 726.393 104.75 725.956 104.75 725.301ZM87.4866 725.301C87.4866 724.645 87.9237 724.208 88.5793 724.208C89.2349 724.208 89.6719 724.645 89.6719 725.301C89.6719 725.956 89.2349 726.393 88.5793 726.393C87.9237 726.393 87.4866 725.956 87.4866 725.301ZM70.0042 725.301C70.0042 724.645 70.4413 724.208 71.0969 724.208C71.7525 724.208 72.1895 724.645 72.1895 725.301C72.1895 725.956 71.7525 726.393 71.0969 726.393C70.6598 726.393 70.0042 725.956 70.0042 725.301ZM52.7404 725.301C52.7404 724.645 53.1774 724.208 53.833 724.208C54.4886 724.208 54.9257 724.645 54.9257 725.301C54.9257 725.956 54.4886 726.393 53.833 726.393C53.1774 726.393 52.7404 725.956 52.7404 725.301ZM35.4765 725.301C35.4765 724.645 35.9136 724.208 36.5692 724.208C37.2248 724.208 37.6618 724.645 37.6618 725.301C37.6618 725.956 37.2248 726.393 36.5692 726.393C35.9136 726.393 35.4765 725.956 35.4765 725.301ZM18.2127 725.301C18.2127 724.645 18.6497 724.208 19.3053 724.208C19.9609 724.208 20.398 724.645 20.398 725.301C20.398 725.956 19.9609 726.393 19.3053 726.393C18.6497 726.393 18.2127 725.956 18.2127 725.301Z" fill="white" fill-opacity="0.3"/>
<path d="M347.974 726.393C347.756 726.393 347.756 726.393 347.537 726.393C347.319 726.393 347.319 726.175 347.1 726.175C346.882 725.956 346.882 725.738 346.882 725.519C346.882 725.301 347.1 724.864 347.1 724.645C347.537 724.208 348.193 724.208 348.63 724.645C348.848 724.864 349.067 725.082 349.067 725.519C349.067 725.738 348.848 726.175 348.63 726.175C348.411 726.393 348.193 726.393 347.974 726.393Z" fill="white" fill-opacity="0.3"/>
<path d="M217.512 182.035C196.752 182.035 179.925 165.209 179.925 144.448C179.925 123.688 196.97 107.08 217.512 107.08C238.054 107.08 255.099 123.906 255.099 144.667C255.099 165.427 238.272 182.035 217.512 182.035ZM217.512 118.006C202.87 118.006 190.851 130.025 190.851 144.667C190.851 159.308 202.87 171.327 217.512 171.327C232.153 171.327 244.173 159.308 244.173 144.667C244.173 129.807 232.372 118.006 217.512 118.006Z" fill="white" fill-opacity="0.3"/>
<path d="M1036.34 803.753C1015.58 803.753 998.756 786.926 998.756 766.166C998.756 745.405 1015.58 728.579 1036.34 728.579C1057.1 728.579 1073.93 745.405 1073.93 766.166C1073.93 786.926 1057.1 803.753 1036.34 803.753ZM1036.34 739.505C1021.7 739.505 1009.68 751.524 1009.68 766.166C1009.68 780.807 1021.7 792.826 1036.34 792.826C1050.98 792.826 1063 780.807 1063 766.166C1063 751.524 1050.98 739.505 1036.34 739.505Z" fill="white" fill-opacity="0.3"/>
</g>
</svg>
